<svg width="42" height="40" viewBox="0 0 42 40" fill="none" xmlns="http://www.w3.org/2000/svg">
<g filter="url(#filter0_d_175_284)">
<path d="M30.634 6.64775C30.3199 5.92033 29.8669 5.26116 29.3004 4.70712C28.7336 4.15143 28.0652 3.70983 27.3317 3.40634C26.5711 3.09039 25.7553 2.92866 24.9317 2.93056C23.7762 2.93056 22.6489 3.24696 21.6692 3.84462C21.4348 3.98759 21.2122 4.14462 21.0012 4.31571C20.7903 4.14462 20.5676 3.98759 20.3333 3.84462C19.3536 3.24696 18.2262 2.93056 17.0708 2.93056C16.2387 2.93056 15.4325 3.08993 14.6708 3.40634C13.9348 3.71103 13.2715 4.14931 12.702 4.70712C12.1348 5.26053 11.6817 5.91986 11.3684 6.64775C11.0426 7.40478 10.8762 8.20868 10.8762 9.03603C10.8762 9.8165 11.0356 10.6298 11.352 11.4571C11.6168 12.1485 11.9965 12.8657 12.4817 13.5899C13.2504 14.736 14.3075 15.9313 15.62 17.1431C17.795 19.1517 19.9489 20.5392 20.0403 20.5954L20.5958 20.9517C20.8418 21.1087 21.1583 21.1087 21.4043 20.9517L21.9598 20.5954C22.0512 20.5368 24.2028 19.1517 26.3801 17.1431C27.6926 15.9313 28.7497 14.736 29.5184 13.5899C30.0036 12.8657 30.3856 12.1485 30.6481 11.4571C30.9645 10.6298 31.1239 9.8165 31.1239 9.03603C31.1262 8.20868 30.9598 7.40478 30.634 6.64775Z" fill="#E25B6C"/>
</g>
<defs>
<filter id="filter0_d_175_284" x="0.876221" y="0.930542" width="40.2477" height="38.1389" filterUnits="userSpaceOnUse" color-interpolation-filters="sRGB">
<feFlood flood-opacity="0" result="BackgroundImageFix"/>
<feColorMatrix in="SourceAlpha" type="matrix" values="0 0 0 0 0 0 0 0 0 0 0 0 0 0 0 0 0 0 127 0" result="hardAlpha"/>
<feOffset dy="8"/>
<feGaussianBlur stdDeviation="5"/>
<feComposite in2="hardAlpha" operator="out"/>
<feColorMatrix type="matrix" values="0 0 0 0 0.886275 0 0 0 0 0.356863 0 0 0 0 0.423529 0 0 0 0.25 0"/>
<feBlend mode="normal" in2="BackgroundImageFix" result="effect1_dropShadow_175_284"/>
<feBlend mode="normal" in="SourceGraphic" in2="effect1_dropShadow_175_284" result="shape"/>
</filter>
</defs>
</svg>
