<svg width="48" height="48" viewBox="0 0 48 48" fill="none" xmlns="http://www.w3.org/2000/svg">
<g clip-path="url(#clip0_479_2603)">
<path d="M22.8967 48H26.207L26.207 24.8275H22.8967L22.8967 48Z" fill="#CBCBCB"/>
<path d="M30.2407 49.4752C30.2407 47.0277 28.1899 45.0352 25.7065 45.0352H24.1203C21.6209 45.0352 19.5861 47.0434 19.5861 49.4752H30.2407Z" fill="#FFC55A"/>
<path d="M23.7242 31.4484C32.4084 31.4484 39.4484 24.4084 39.4484 15.7242C39.4484 7.03995 32.4084 0 23.7242 0C15.04 0 8 7.03995 8 15.7242C8 24.4084 15.04 31.4484 23.7242 31.4484Z" fill="#FFC55A"/>
<path d="M23.724 28.1382C30.58 28.1382 36.1378 22.5803 36.1378 15.7244C36.1378 8.8684 30.58 3.31055 23.724 3.31055C16.868 3.31055 11.3102 8.8684 11.3102 15.7244C11.3102 22.5803 16.868 28.1382 23.724 28.1382Z" fill="white"/>
<path d="M23.884 25.9326C23.539 25.9326 23.194 25.9127 22.849 25.8928C18.9524 25.5351 15.6038 23.0907 14.1223 19.5335C13.5946 18.2815 13.3308 16.9698 13.3308 15.5986C13.3308 9.89506 18.0595 5.26465 23.884 5.26465C25.264 5.26465 26.6238 5.523 27.9023 6.0397C31.5351 7.49043 34.011 10.7695 34.3966 14.5851C34.4372 14.9229 34.4372 15.2608 34.4372 15.5986C34.4372 21.2823 29.6883 25.9326 23.884 25.9326Z" fill="#FFC55A"/>
<mask id="mask0_479_2603" style="mask-type:alpha" maskUnits="userSpaceOnUse" x="13" y="5" width="22" height="21">
<path d="M23.884 25.9326C23.539 25.9326 23.194 25.9127 22.849 25.8928C18.9524 25.5351 15.6038 23.0907 14.1223 19.5335C13.5946 18.2815 13.3308 16.9698 13.3308 15.5986C13.3308 9.89506 18.0595 5.26465 23.884 5.26465C25.264 5.26465 26.6238 5.523 27.9023 6.0397C31.5351 7.49043 34.011 10.7695 34.3966 14.5851C34.4372 14.9229 34.4372 15.2608 34.4372 15.5986C34.4372 21.2823 29.6883 25.9326 23.884 25.9326Z" fill="#FFC55A"/>
</mask>
<g mask="url(#mask0_479_2603)">
<rect x="-0.386597" y="19.917" width="44.0277" height="16.7725" transform="rotate(-30 -0.386597 19.917)" fill="#FBDFB1"/>
</g>
<g filter="url(#filter0_d_479_2603)">
<path d="M28.9936 12.9763C28.9726 12.9763 28.9517 12.9763 28.9517 12.9763V11.5493C28.9517 11.4854 28.9517 11.4215 28.9307 11.3576C28.9307 11.3363 28.9307 11.3363 28.9307 11.315C28.9307 10.5483 26.6051 9.93066 23.7347 9.93066C20.8644 9.93066 18.5178 10.5696 18.5178 11.3363C18.5178 11.3576 18.5178 11.3576 18.5178 11.3789C18.4968 11.4428 18.4968 11.5067 18.4968 11.5706V12.9976C18.4759 12.9976 18.4549 12.9976 18.4549 12.9976C18.1616 12.9976 17.9312 13.7217 17.9312 14.6163C17.9312 15.5108 18.1616 16.2349 18.4549 16.2349C18.4759 16.2349 18.4759 16.2349 18.4968 16.2349V19.451C18.4968 19.9621 18.8949 20.3668 19.3978 20.3668H19.5444V20.3881V20.9206C19.5444 21.24 19.8168 21.5169 20.1311 21.5169H20.6968C21.011 21.5169 21.2834 21.24 21.2834 20.9206V20.3881V20.3668H26.1651V20.3881V20.9206C26.1651 21.24 26.4165 21.5169 26.7518 21.5169H27.3175C27.6317 21.5169 27.9041 21.24 27.9041 20.9206V20.3881V20.3668H28.0508C28.5536 20.3668 28.9517 19.9621 28.9517 19.451V16.1923C28.9726 16.1923 28.9936 16.1923 28.9936 16.1923C29.2869 16.1923 29.5174 15.4682 29.5174 14.5737C29.5174 13.6792 29.2869 12.9763 28.9936 12.9763ZM20.4244 19.4084C20.0682 19.4084 19.7958 19.1102 19.7958 18.7694C19.7958 18.4074 20.0892 18.1305 20.4244 18.1305C20.7806 18.1305 21.0529 18.4287 21.0529 18.7694C21.0529 19.1102 20.7806 19.4084 20.4244 19.4084ZM27.0241 19.4084C26.668 19.4084 26.3956 19.1102 26.3956 18.7694C26.3956 18.4074 26.6889 18.1305 27.0241 18.1305C27.3803 18.1305 27.6527 18.4287 27.6527 18.7694C27.6736 19.1102 27.3803 19.4084 27.0241 19.4084ZM27.9879 16.6183C27.9879 17.0017 27.6946 17.2999 27.3175 17.2999H20.1311C19.7539 17.2999 19.4606 17.0017 19.4606 16.6183V12.5716C19.4606 12.1883 19.7539 11.8901 20.1311 11.8901H27.3175C27.6946 11.8901 27.9879 12.1883 27.9879 12.5716V16.6183Z" fill="white"/>
</g>
</g>
<defs>
<filter id="filter0_d_479_2603" x="-2.06885" y="-2.06934" width="51.5862" height="51.5859" filterUnits="userSpaceOnUse" color-interpolation-filters="sRGB">
<feFlood flood-opacity="0" result="BackgroundImageFix"/>
<feColorMatrix in="SourceAlpha" type="matrix" values="0 0 0 0 0 0 0 0 0 0 0 0 0 0 0 0 0 0 127 0" result="hardAlpha"/>
<feOffset dy="8"/>
<feGaussianBlur stdDeviation="10"/>
<feColorMatrix type="matrix" values="0 0 0 0 0 0 0 0 0 0 0 0 0 0 0 0 0 0 0.1 0"/>
<feBlend mode="normal" in2="BackgroundImageFix" result="effect1_dropShadow_479_2603"/>
<feBlend mode="normal" in="SourceGraphic" in2="effect1_dropShadow_479_2603" result="shape"/>
</filter>
<clipPath id="clip0_479_2603">
<rect width="48" height="48" fill="white"/>
</clipPath>
</defs>
</svg>
