<svg width="1439" height="513" viewBox="0 0 1439 513" fill="none" xmlns="http://www.w3.org/2000/svg">
<g clip-path="url(#clip0_4_3)">
<path opacity="0.35" d="M1505 625C1505 197.393 1158.7 -149 732 -149C305.298 -149 -41 197.393 -41 625H1505Z" fill="url(#paint0_linear_4_3)"/>
<g opacity="0.6">
<path d="M956.388 239.342C956.388 233.912 952.052 229.569 946.632 229.569C945.114 229.569 943.597 230.003 942.296 230.655C942.079 225.442 937.96 221.315 932.54 221.315C927.337 221.315 923.218 225.442 922.784 230.437C921.7 230.003 920.399 229.569 919.098 229.569C913.678 229.569 909.342 233.912 909.342 239.342C909.342 244.772 913.678 249.116 919.098 249.116H947.282C952.486 248.681 956.388 244.555 956.388 239.342Z" fill="#F3EEEC"/>
<path d="M694.927 167.235C694.927 159.634 688.64 153.335 681.052 153.335C678.884 153.335 676.716 153.987 674.765 154.856C674.548 147.254 668.478 141.39 660.89 141.39C653.518 141.39 647.448 147.254 647.014 154.421C645.28 153.77 643.546 153.335 641.594 153.335C634.006 153.335 627.719 159.634 627.719 167.235C627.719 174.837 634.006 181.135 641.594 181.135H682.136C689.29 180.484 694.927 174.403 694.927 167.235Z" fill="#F3EEEC"/>
<path d="M1068.69 112.287C1068.69 100.341 1058.93 90.5677 1047.01 90.5677C1043.54 90.5677 1040.07 91.4365 1037.25 92.9568C1036.82 81.2286 1027.28 71.8895 1015.57 71.8895C1004.08 71.8895 994.545 81.0114 993.894 92.3053C991.293 91.2193 988.474 90.5677 985.439 90.5677C973.515 90.5677 963.759 100.341 963.759 112.287C963.759 124.232 973.515 134.006 985.439 134.006H1048.53C1059.8 133.137 1068.69 123.798 1068.69 112.287Z" fill="#F3EEEC"/>
<path d="M729.398 66.0254C729.398 55.166 720.51 46.2612 709.67 46.2612C706.418 46.2612 703.382 47.13 700.781 48.4331C700.564 37.7909 691.892 29.3205 681.052 29.3205C670.646 29.3205 661.974 37.5737 661.323 47.9987C658.938 46.9128 656.337 46.4784 653.735 46.4784C642.895 46.4784 634.006 55.3832 634.006 66.2426C634.006 77.102 642.895 86.0068 653.735 86.0068H711.187C721.377 84.9208 729.398 76.2333 729.398 66.0254Z" fill="#F3EEEC"/>
<path d="M1029.45 199.814C1029.45 192.212 1023.16 185.914 1015.57 185.914C1013.41 185.914 1011.24 186.565 1009.29 187.434C1009.07 179.832 1003 173.968 995.412 173.968C988.041 173.968 981.97 179.832 981.537 187C979.802 186.348 978.068 185.914 976.117 185.914C968.529 185.914 962.242 192.212 962.242 199.814C962.242 207.415 968.529 213.714 976.117 213.714H1016.66C1023.81 213.062 1029.45 206.981 1029.45 199.814Z" fill="#F3EEEC"/>
<path d="M454.279 125.97C454.279 118.368 447.992 112.069 440.404 112.069C438.236 112.069 436.068 112.721 434.117 113.59C433.9 105.988 427.83 100.124 420.242 100.124C412.87 100.124 406.8 105.988 406.366 113.155C404.632 112.504 402.898 112.069 400.946 112.069C393.358 112.069 387.071 118.368 387.071 125.97C387.071 133.571 393.358 139.87 400.946 139.87H441.488C448.642 139.218 454.279 133.354 454.279 125.97Z" fill="#F3EEEC"/>
<path d="M949.884 316.01H940.995V324.915H949.884V316.01Z" fill="#D3B9C7"/>
<path d="M1003.43 352.715H933.19V394.849H1003.43V352.715Z" fill="#F4CD8F"/>
<path d="M934.708 324.915H1002.13L1008.64 352.715H928.204L934.708 324.915Z" fill="#FA7F25"/>
<path d="M977.418 370.959H959.206V394.849H977.418V370.959Z" fill="#283B6E"/>
<path d="M953.353 363.574H939.261V377.691H953.353V363.574Z" fill="#283B6E"/>
<path d="M946.415 363.574V377.909" stroke="#D3B9C7" stroke-width="0.75" stroke-miterlimit="10"/>
<path d="M953.353 370.741H939.261" stroke="#D3B9C7" stroke-width="0.75" stroke-miterlimit="10"/>
<path d="M997.363 363.574H983.271V377.691H997.363V363.574Z" fill="#283B6E"/>
<path d="M990.426 363.574V377.909" stroke="#D3B9C7" stroke-width="0.75" stroke-miterlimit="10"/>
<path d="M997.363 370.741H983.271" stroke="#D3B9C7" stroke-width="0.75" stroke-miterlimit="10"/>
<path d="M909.559 155.29H852.541V178.746H909.559V155.29Z" fill="#F2E6D1"/>
<path d="M899.586 132.051H862.73V155.507H899.586V132.051Z" fill="#EFE8DC"/>
<path d="M922.134 178.746H838.666V462.178H922.134V178.746Z" fill="#FAE6C3"/>
<path d="M863.814 188.737H849.939V202.637H863.814V188.737Z" fill="#283B6E"/>
<path d="M888.096 188.737H874.221V202.637H888.096V188.737Z" fill="#283B6E"/>
<path d="M912.161 188.737H898.286V202.637H912.161V188.737Z" fill="#283B6E"/>
<path d="M863.814 213.062H849.939V226.962H863.814V213.062Z" fill="#283B6E"/>
<path d="M888.096 213.062H874.221V226.962H888.096V213.062Z" fill="#283B6E"/>
<path d="M912.161 213.062H898.286V226.962H912.161V213.062Z" fill="#283B6E"/>
<path d="M863.814 237.17H849.939V251.07H863.814V237.17Z" fill="#283B6E"/>
<path d="M888.096 237.17H874.221V251.07H888.096V237.17Z" fill="#283B6E"/>
<path d="M912.161 237.17H898.286V251.07H912.161V237.17Z" fill="#283B6E"/>
<path d="M863.814 261.495H849.939V275.396H863.814V261.495Z" fill="#283B6E"/>
<path d="M888.096 261.495H874.221V275.396H888.096V261.495Z" fill="#283B6E"/>
<path d="M912.161 261.495H898.286V275.396H912.161V261.495Z" fill="#283B6E"/>
<path d="M863.814 285.603H849.939V299.503H863.814V285.603Z" fill="#283B6E"/>
<path d="M888.096 285.603H874.221V299.503H888.096V285.603Z" fill="#283B6E"/>
<path d="M912.161 285.603H898.286V299.503H912.161V285.603Z" fill="#283B6E"/>
<path d="M863.814 309.711H849.939V323.611H863.814V309.711Z" fill="#283B6E"/>
<path d="M888.096 309.711H874.221V323.611H888.096V309.711Z" fill="#283B6E"/>
<path d="M912.161 309.711H898.286V323.611H912.161V309.711Z" fill="#283B6E"/>
<path d="M863.814 334.036H849.939V347.937H863.814V334.036Z" fill="#283B6E"/>
<path d="M888.096 334.036H874.221V347.937H888.096V334.036Z" fill="#283B6E"/>
<path d="M912.161 334.036H898.286V347.937H912.161V334.036Z" fill="#283B6E"/>
<path d="M863.814 358.144H849.939V372.044H863.814V358.144Z" fill="#283B6E"/>
<path d="M888.096 358.144H874.221V372.044H888.096V358.144Z" fill="#283B6E"/>
<path d="M912.161 358.144H898.286V372.044H912.161V358.144Z" fill="#283B6E"/>
<path d="M863.814 382.47H849.939V396.37H863.814V382.47Z" fill="#283B6E"/>
<path d="M888.096 382.47H874.221V396.37H888.096V382.47Z" fill="#283B6E"/>
<path d="M912.161 382.47H898.286V396.37H912.161V382.47Z" fill="#283B6E"/>
<path d="M863.814 406.577H849.939V420.478H863.814V406.577Z" fill="#283B6E"/>
<path d="M888.096 406.577H874.221V420.478H888.096V406.577Z" fill="#283B6E"/>
<path d="M912.161 406.577H898.286V420.478H912.161V406.577Z" fill="#283B6E"/>
<path d="M863.814 430.685H849.939V444.586H863.814V430.685Z" fill="#283B6E"/>
<path d="M888.096 430.685H874.221V444.586H888.096V430.685Z" fill="#283B6E"/>
<path d="M912.161 430.685H898.286V444.586H912.161V430.685Z" fill="#283B6E"/>
<path d="M883.326 170.71H878.774V178.746H883.326V170.71Z" fill="#283B6E"/>
<path d="M883.326 147.254H878.774V155.29H883.326V147.254Z" fill="#283B6E"/>
<path d="M874.871 449.798H868.584V460.658H874.871V449.798Z" fill="#E59E97"/>
<path d="M871.619 451.101C881.078 451.101 888.746 443.419 888.746 433.943C888.746 424.467 881.078 416.785 871.619 416.785C862.16 416.785 854.492 424.467 854.492 433.943C854.492 443.419 862.16 451.101 871.619 451.101Z" fill="#C3CD66"/>
<path d="M1237.36 406.143H1231.07V417.003H1237.36V406.143Z" fill="#E59E97"/>
<path d="M1234.33 407.446C1243.78 407.446 1251.45 399.764 1251.45 390.288C1251.45 380.812 1243.78 373.13 1234.33 373.13C1224.87 373.13 1217.2 380.812 1217.2 390.288C1217.2 399.764 1224.87 407.446 1234.33 407.446Z" fill="#C3CD66"/>
<path d="M1150.86 371.176H1144.57V382.035H1150.86V371.176Z" fill="#E59E97"/>
<path d="M1147.82 372.479C1157.28 372.479 1164.95 364.797 1164.95 355.321C1164.95 345.845 1157.28 338.163 1147.82 338.163C1138.36 338.163 1130.7 345.845 1130.7 355.321C1130.7 364.797 1138.36 372.479 1147.82 372.479Z" fill="#C3CD66"/>
<path d="M1129.39 366.832H1123.11V377.691H1129.39V366.832Z" fill="#E59E97"/>
<path d="M1126.36 368.135C1135.82 368.135 1143.49 360.453 1143.49 350.977C1143.49 341.501 1135.82 333.819 1126.36 333.819C1116.9 333.819 1109.23 341.501 1109.23 350.977C1109.23 360.453 1116.9 368.135 1126.36 368.135Z" fill="#C3CD66"/>
<path d="M1060.02 380.298H1053.73V391.157H1060.02V380.298Z" fill="#E59E97"/>
<path d="M1056.98 381.601C1066.44 381.601 1074.11 373.919 1074.11 364.443C1074.11 354.967 1066.44 347.285 1056.98 347.285C1047.52 347.285 1039.86 354.967 1039.86 364.443C1039.86 373.919 1047.52 381.601 1056.98 381.601Z" fill="#C3CD66"/>
<path d="M983.488 460.875C983.488 460.875 1012.54 375.52 1126.14 375.52C1239.75 375.52 1267.93 460.875 1267.93 460.875H983.488Z" fill="#C3CD66"/>
<path d="M1016.22 396.804H1009.94V407.663H1016.22V396.804Z" fill="#E59E97"/>
<path d="M1012.97 398.107C1022.43 398.107 1030.1 390.425 1030.1 380.949C1030.1 371.473 1022.43 363.791 1012.97 363.791C1003.51 363.791 995.846 371.473 995.846 380.949C995.846 390.425 1003.51 398.107 1012.97 398.107Z" fill="#C3CD66"/>
<path d="M1110.1 402.668H1102.29V416.351H1110.1V402.668Z" fill="#E59E97"/>
<path d="M1106.2 404.406C1118.05 404.406 1127.66 394.779 1127.66 382.904C1127.66 371.029 1118.05 361.402 1106.2 361.402C1094.34 361.402 1084.73 371.029 1084.73 382.904C1084.73 394.779 1094.34 404.406 1106.2 404.406Z" fill="#C3CD66"/>
<path d="M1187.93 403.103H1180.13V416.785H1187.93V403.103Z" fill="#E59E97"/>
<path d="M1184.03 404.84C1195.88 404.84 1205.49 395.213 1205.49 383.338C1205.49 371.463 1195.88 361.837 1184.03 361.837C1172.17 361.837 1162.56 371.463 1162.56 383.338C1162.56 395.213 1172.17 404.84 1184.03 404.84Z" fill="#C3CD66"/>
<path d="M248.753 447.192H240.948V460.875H248.753V447.192Z" fill="#E59E97"/>
<path d="M244.85 448.929C256.704 448.929 266.314 439.303 266.314 427.428C266.314 415.553 256.704 405.926 244.85 405.926C232.997 405.926 223.387 415.553 223.387 427.428C223.387 439.303 232.997 448.929 244.85 448.929Z" fill="#C3CD66"/>
<path d="M349.782 447.192H341.977V460.875H349.782V447.192Z" fill="#E59E97"/>
<path d="M345.879 448.929C357.733 448.929 367.342 439.303 367.342 427.428C367.342 415.553 357.733 405.926 345.879 405.926C334.025 405.926 324.416 415.553 324.416 427.428C324.416 439.303 334.025 448.929 345.879 448.929Z" fill="#C3CD66"/>
<path d="M720.726 149.426V460.875H776.227V199.814L720.726 149.426Z" fill="#7F94C6"/>
<path d="M788.585 211.108L776.227 199.814V460.875H788.585V211.108Z" fill="#283B6E"/>
<path d="M503.71 165.932H447.342V460.658H503.71V165.932Z" fill="#283B6E"/>
<path d="M641.594 165.932H584.359V460.658H641.594V165.932Z" fill="#7F94C6"/>
<path d="M654.602 165.932H641.594V460.658H654.602V165.932Z" fill="#283B6E"/>
<path d="M552.056 131.616V461.309H566.581V119.888C561.595 123.58 556.609 127.49 552.056 131.616Z" fill="#283B6E"/>
<path d="M471.19 342.29V461.309H552.056V131.616C465.986 208.284 471.19 342.29 471.19 342.29Z" fill="#7F94C6"/>
<path d="M819.154 260.409H629.02V459.789H819.154V260.409Z" fill="#FFB631"/>
<path d="M749.127 243.469H699.046V260.409H749.127V243.469Z" fill="#FFB631"/>
<path d="M687.339 254.328H650.266V260.409H687.339V254.328Z" fill="#FA7F25"/>
<path d="M797.907 254.328H760.834V260.409H797.907V254.328Z" fill="#FA7F25"/>
<path d="M819.154 409.835H629.02V460.658H819.154V409.835Z" fill="#F3EEEC"/>
<path d="M664.142 276.481H645.28V310.363H664.142V276.481Z" fill="#283B6E"/>
<path d="M698.83 276.481H679.968V310.363H698.83V276.481Z" fill="#283B6E"/>
<path d="M733.518 276.481H714.656V310.363H733.518V276.481Z" fill="#283B6E"/>
<path d="M768.206 276.481H749.344V310.363H768.206V276.481Z" fill="#283B6E"/>
<path d="M802.894 276.481H784.032V310.363H802.894V276.481Z" fill="#283B6E"/>
<path d="M664.142 319.919H645.28V353.801H664.142V319.919Z" fill="#283B6E"/>
<path d="M698.83 319.919H679.968V353.801H698.83V319.919Z" fill="#283B6E"/>
<path d="M733.518 319.919H714.656V353.801H733.518V319.919Z" fill="#283B6E"/>
<path d="M768.206 319.919H749.344V353.801H768.206V319.919Z" fill="#283B6E"/>
<path d="M802.894 319.919H784.032V353.801H802.894V319.919Z" fill="#283B6E"/>
<path d="M664.142 363.357H645.28V397.238H664.142V363.357Z" fill="#283B6E"/>
<path d="M698.83 363.357H679.968V397.238H698.83V363.357Z" fill="#283B6E"/>
<path d="M733.518 363.357H714.656V397.238H733.518V363.357Z" fill="#283B6E"/>
<path d="M768.206 363.357H749.344V397.238H768.206V363.357Z" fill="#283B6E"/>
<path d="M802.894 363.357H784.032V397.238H802.894V363.357Z" fill="#283B6E"/>
<path d="M698.83 421.346H645.28V449.146H698.83V421.346Z" fill="#283B6E"/>
<path d="M671.946 421.346V449.146" stroke="#F3EEEC" stroke-miterlimit="10"/>
<path d="M802.894 421.346H749.344V449.146H802.894V421.346Z" fill="#283B6E"/>
<path d="M776.227 421.346V449.146" stroke="#F3EEEC" stroke-miterlimit="10"/>
<path d="M738.504 435.246H709.886V460.657H738.504V435.246Z" fill="#283B6E"/>
<path d="M1078.66 382.035H1069.77V390.94H1078.66V382.035Z" fill="#A5919D"/>
<path d="M1132.43 418.74H1062.19V460.875H1132.43V418.74Z" fill="#F4CD8F"/>
<path d="M1063.49 390.94H1130.91L1137.42 418.74H1056.98L1063.49 390.94Z" fill="#283B6E"/>
<path d="M1106.41 436.984H1088.2V460.875H1106.41V436.984Z" fill="#283B6E"/>
<path d="M1082.13 429.6H1068.04V443.717H1082.13V429.6Z" fill="#283B6E"/>
<path d="M1075.19 429.6V443.934" stroke="#D3B9C7" stroke-width="0.75" stroke-miterlimit="10"/>
<path d="M1082.35 436.767H1068.04" stroke="#D3B9C7" stroke-width="0.75" stroke-miterlimit="10"/>
<path d="M1126.36 429.6H1112.27V443.717H1126.36V429.6Z" fill="#283B6E"/>
<path d="M1119.2 429.6V443.934" stroke="#D3B9C7" stroke-width="0.75" stroke-miterlimit="10"/>
<path d="M1126.36 436.767H1112.27" stroke="#D3B9C7" stroke-width="0.75" stroke-miterlimit="10"/>
<path d="M1169.5 382.035H1160.61V390.94H1169.5V382.035Z" fill="#FA7F25"/>
<path d="M1223.05 418.74H1152.81V460.875H1223.05V418.74Z" fill="#FA7F25"/>
<path d="M1154.33 390.94H1221.75L1228.26 418.74H1147.82L1154.33 390.94Z" fill="#283B6E"/>
<path d="M1197.04 436.984H1178.82V460.875H1197.04V436.984Z" fill="#283B6E"/>
<path d="M1172.97 429.6H1158.88V443.717H1172.97V429.6Z" fill="#283B6E"/>
<path d="M1166.03 429.6V443.934" stroke="#E25B6C" stroke-width="0.75" stroke-miterlimit="10"/>
<path d="M1172.97 436.767H1158.88" stroke="#E25B6C" stroke-width="0.75" stroke-miterlimit="10"/>
<path d="M1216.98 429.6H1202.89V443.717H1216.98V429.6Z" fill="#283B6E"/>
<path d="M1210.04 429.6V443.934" stroke="#E25B6C" stroke-width="0.75" stroke-miterlimit="10"/>
<path d="M1217.2 436.767H1202.89" stroke="#E25B6C" stroke-width="0.75" stroke-miterlimit="10"/>
<path d="M273.035 382.035H264.146V390.94H273.035V382.035Z" fill="#FA7F25"/>
<path d="M326.584 418.74H256.341V460.875H326.584V418.74Z" fill="#FEE6C1"/>
<path d="M257.858 390.94H325.283L331.787 418.74H251.354L257.858 390.94Z" fill="#283B6E"/>
<path d="M300.568 436.984H282.357V460.875H300.568V436.984Z" fill="#283B6E"/>
<path d="M276.503 429.6H262.411V443.717H276.503V429.6Z" fill="#283B6E"/>
<path d="M269.566 429.6V443.934" stroke="#E59E97" stroke-width="0.75" stroke-miterlimit="10"/>
<path d="M276.503 436.767H262.411" stroke="#E59E97" stroke-width="0.75" stroke-miterlimit="10"/>
<path d="M320.514 429.6H306.422V443.717H320.514V429.6Z" fill="#283B6E"/>
<path d="M313.576 429.6V443.934" stroke="#E59E97" stroke-width="0.75" stroke-miterlimit="10"/>
<path d="M320.731 436.767H306.422" stroke="#E59E97" stroke-width="0.75" stroke-miterlimit="10"/>
<path d="M1036.39 418.74H966.144V376.605H867.283V460.875H1036.39V418.74Z" fill="#FFB631"/>
<path d="M966.144 390.94H1036.39L1046.58 418.74H966.144V390.94Z" fill="#283B6E"/>
<path d="M872.703 334.905H958.99L975.25 376.605H856.443L872.703 334.905Z" fill="#283B6E"/>
<path d="M1016.66 436.984H980.236V460.875H1016.66V436.984Z" fill="#EAE9DF"/>
<path d="M926.47 436.984H908.258V460.875H926.47V436.984Z" fill="#283B6E"/>
<path d="M890.481 385.727C885.061 385.727 880.508 390.288 880.508 395.718V423.953H900.454V395.718C900.454 390.071 895.901 385.727 890.481 385.727Z" fill="#283B6E"/>
<path d="M890.481 385.727V423.953" stroke="#E59E97" stroke-width="0.75" stroke-miterlimit="10"/>
<path d="M880.508 413.745H900.454" stroke="#E59E97" stroke-width="0.75" stroke-miterlimit="10"/>
<path d="M880.508 403.754H900.454" stroke="#E59E97" stroke-width="0.75" stroke-miterlimit="10"/>
<path d="M880.508 393.981H900.454" stroke="#E59E97" stroke-width="0.75" stroke-miterlimit="10"/>
<path d="M944.247 385.727C938.827 385.727 934.274 390.288 934.274 395.718V423.953H954.22V395.718C954.22 390.071 949.667 385.727 944.247 385.727Z" fill="#283B6E"/>
<path d="M944.247 385.727V423.953" stroke="#E59E97" stroke-width="0.75" stroke-miterlimit="10"/>
<path d="M934.274 413.745H954.22" stroke="#E59E97" stroke-width="0.75" stroke-miterlimit="10"/>
<path d="M934.274 403.754H954.22" stroke="#E59E97" stroke-width="0.75" stroke-miterlimit="10"/>
<path d="M934.274 393.981H954.22" stroke="#E59E97" stroke-width="0.75" stroke-miterlimit="10"/>
<path d="M897.418 433.943H883.326V448.061H897.418V433.943Z" fill="#283B6E"/>
<path d="M890.481 433.943V448.278" stroke="#E59E97" stroke-width="0.75" stroke-miterlimit="10"/>
<path d="M897.635 441.111H883.326" stroke="#E59E97" stroke-width="0.75" stroke-miterlimit="10"/>
<path d="M951.185 433.943H937.093V448.061H951.185V433.943Z" fill="#283B6E"/>
<path d="M944.247 433.943V448.278" stroke="#E59E97" stroke-width="0.75" stroke-miterlimit="10"/>
<path d="M951.402 441.111H937.093" stroke="#E59E97" stroke-width="0.75" stroke-miterlimit="10"/>
<path d="M917.364 395.501C919.878 395.501 921.917 393.459 921.917 390.94C921.917 388.421 919.878 386.379 917.364 386.379C914.85 386.379 912.811 388.421 912.811 390.94C912.811 393.459 914.85 395.501 917.364 395.501Z" fill="#EAE9DF"/>
<path d="M890.481 322.525H881.592V334.905H890.481V322.525Z" fill="#FA7F25"/>
<path d="M513.682 261.495H350.649V461.526H513.682V261.495Z" fill="#F4CD8F"/>
<path d="M513.682 280.391H350.649V293.422H513.682V280.391Z" fill="#283B6E"/>
<path d="M513.682 304.282H350.649V317.313H513.682V304.282Z" fill="#283B6E"/>
<path d="M513.682 328.172H350.649V341.204H513.682V328.172Z" fill="#283B6E"/>
<path d="M513.682 352.063H350.649V365.094H513.682V352.063Z" fill="#283B6E"/>
<path d="M513.682 375.954H350.649V388.985H513.682V375.954Z" fill="#283B6E"/>
<path d="M513.682 399.845H350.649V412.876H513.682V399.845Z" fill="#283B6E"/>
<path d="M513.682 423.735H350.649V436.767H513.682V423.735Z" fill="#283B6E"/>
<path d="M439.97 442.197H424.578V462.178H439.97V442.197Z" fill="#283B6E"/>
<path d="M432.165 249.984H368.209V261.713H432.165V249.984Z" fill="#FA7F25"/>
<path d="M834.763 449.798H828.476V460.658H834.763V449.798Z" fill="#E59E97"/>
<path d="M831.728 451.101C841.187 451.101 848.855 443.419 848.855 433.943C848.855 424.467 841.187 416.785 831.728 416.785C822.269 416.785 814.601 424.467 814.601 433.943C814.601 443.419 822.269 451.101 831.728 451.101Z" fill="#C3CD66"/>
<path d="M619.698 449.798H613.41V460.658H619.698V449.798Z" fill="#E59E97"/>
<path d="M616.446 451.101C625.905 451.101 633.573 443.419 633.573 433.943C633.573 424.467 625.905 416.785 616.446 416.785C606.987 416.785 599.318 424.467 599.318 433.943C599.318 443.419 606.987 451.101 616.446 451.101Z" fill="#C3CD66"/>
<path d="M969.396 449.798H963.109V460.658H969.396V449.798Z" fill="#E25B6C"/>
<path d="M966.144 451.101C975.603 451.101 983.271 443.419 983.271 433.943C983.271 424.467 975.603 416.785 966.144 416.785C956.685 416.785 949.017 424.467 949.017 433.943C949.017 443.419 956.685 451.101 966.144 451.101Z" fill="#C3CD66"/>
<path d="M574.82 449.798H568.533V460.658H574.82V449.798Z" fill="#E59E97"/>
<path d="M571.785 451.101C581.244 451.101 588.912 443.419 588.912 433.943C588.912 424.467 581.244 416.785 571.785 416.785C562.326 416.785 554.658 424.467 554.658 433.943C554.658 443.419 562.326 451.101 571.785 451.101Z" fill="#C3CD66"/>
<path d="M486.366 449.798H480.078V460.658H486.366V449.798Z" fill="#E59E97"/>
<path d="M483.33 451.101C492.79 451.101 500.458 443.419 500.458 433.943C500.458 424.467 492.79 416.785 483.33 416.785C473.871 416.785 466.203 424.467 466.203 433.943C466.203 443.419 473.871 451.101 483.33 451.101Z" fill="#C3CD66"/>
</g>
<g clip-path="url(#clip1_4_3)" filter="url(#filter0_d_4_3)">
<path d="M805.713 253.719L804.948 253.904V254.691V290.3C804.948 301.588 798.488 311.263 788.921 315.97L788.362 316.245V316.867C788.362 316.865 788.36 316.891 788.323 317.042L788.317 317.065C788.285 317.189 788.223 317.435 788.223 317.702V318.397L788.875 318.639C794.477 320.72 798.537 326.189 798.537 332.864C798.537 336.394 797.358 339.662 795.392 342.278L795.192 342.545V342.879V350.946V351.314L795.43 351.595C797.639 354.188 798.955 357.711 798.955 361.518C798.955 370.033 792.408 376.792 784.066 376.792H777.794H777.255L776.959 377.242C774.215 381.416 769.509 384.164 763.857 384.164C758.205 384.164 753.5 381.416 750.755 377.242L750.459 376.792H749.92H746.296H745.828L745.529 377.151C744.216 378.723 742.644 380.031 740.67 381.082L740.662 381.086L740.654 381.09C738.294 382.399 735.673 383.051 733.195 383.051C729.678 383.051 726.263 381.749 723.487 379.639L723.16 379.39L722.753 379.443C715.271 380.411 707.504 380.965 699.171 381.243H698.77C696.529 381.243 694.564 380.85 692.59 380.062L692.15 379.886L691.735 380.117C689.4 381.411 686.507 382.078 683.439 382.078H668.108C665.708 382.078 663.467 381.678 661.51 380.897L661.094 380.731L660.693 380.931C658.352 382.099 655.724 382.634 652.638 382.634C650.053 382.634 647.781 382.362 645.943 381.838L645.932 381.834C643.051 381.05 640.574 379.485 638.755 377.411L638.71 377.36L638.659 377.315C635.66 374.712 633.707 370.809 633.707 366.525C633.707 365.704 633.709 364.565 634.09 363.172L634.099 363.139L634.106 363.105C634.363 361.82 634.744 360.805 635.393 359.639L635.65 359.178L635.413 358.705C634.997 357.874 634.594 357.069 634.191 356.133C633.552 354.467 633.289 352.652 633.289 350.946C633.289 348.336 633.942 345.869 635.241 343.665L635.518 343.196L635.274 342.709C634.231 340.627 633.707 338.416 633.707 335.924C633.707 331.087 635.795 327.058 639.189 324.323L639.479 324.088L639.545 323.721C640.455 318.662 644.094 314.51 649.036 312.953L650.69 312.432L649.41 311.261C647.802 309.79 646.456 308.18 645.236 306.422L645.178 306.337L645.103 306.266C639.575 301.018 636.077 293.625 636.077 285.432V252.605V252.038L635.59 251.747C632.926 250.151 630.543 247.898 628.965 245.274L628.879 245.13L628.75 245.022C624.634 241.577 622 236.563 622 230.906V210.458C622 201.229 628.873 193.572 637.733 192.252L638.318 192.165L638.523 191.609C644.236 176.134 659.34 165 676.749 165H759.955C773.421 165 785.392 171.515 792.877 181.701L792.922 181.763L792.977 181.817C795.967 184.802 798.416 188.195 800.322 191.863L800.541 192.286L801.008 192.382C806.155 193.435 810.385 196.595 813.037 200.962L813.128 201.112L813.265 201.222C817.358 204.516 820 209.658 820 215.327V235.774C820 244.471 813.926 251.736 805.713 253.719Z" fill="white" fill-opacity="0.8" stroke="white" stroke-width="2"/>
<path d="M765.422 181.466H682.216C666.885 181.466 654.342 193.985 654.342 209.285V288.849C654.342 297.473 661.45 304.567 670.091 304.567H671.763V313.469C671.763 317.225 674.829 320.424 678.732 320.424H682.216C685.979 320.424 689.185 317.364 689.185 313.469V304.567H759.429V313.469C759.429 317.225 762.495 320.424 766.397 320.424H769.882C773.784 320.424 776.85 317.364 776.85 313.469V304.567H777.547C786.188 304.567 793.296 297.473 793.296 288.849V209.285C793.296 193.985 780.753 181.466 765.422 181.466ZM688.209 292.326C688.07 292.326 687.791 292.326 687.652 292.326C684.307 292.326 681.38 290.935 679.289 288.849C677.199 286.762 675.944 283.841 675.944 280.642C675.944 274.105 681.241 268.958 687.652 268.958C694.202 268.958 699.359 274.244 699.359 280.642C699.359 286.901 694.481 292.048 688.209 292.326ZM748.279 280.642C748.279 274.105 753.575 268.958 759.986 268.958C766.397 268.958 771.693 274.244 771.693 280.642C771.693 283.841 770.439 286.762 768.349 288.849L760.404 292.326C760.265 292.326 760.126 292.326 759.986 292.326C753.436 292.326 748.279 287.18 748.279 280.642ZM778.662 249.206C778.662 256.857 772.39 263.116 764.725 263.116H683.889C676.223 263.116 669.951 256.857 669.951 249.206V210.259C669.951 202.609 676.223 196.349 683.889 196.349H764.585C772.251 196.349 778.523 202.609 778.523 210.259V249.206H778.662Z" fill="#F6BF5B"/>
<path d="M645.979 208.451C642.913 208.451 640.404 210.955 640.404 214.015V234.462C640.404 237.522 642.913 240.026 645.979 240.026C649.045 240.026 651.554 237.522 651.554 234.462V214.015C651.554 210.955 649.045 208.451 645.979 208.451Z" fill="#F6BF5B"/>
<path d="M802.634 208.451C799.568 208.451 797.059 210.955 797.059 214.015V234.462C797.059 237.522 799.568 240.026 802.634 240.026C805.7 240.026 808.209 237.522 808.209 234.462V214.015C808.209 210.955 805.7 208.451 802.634 208.451Z" fill="#F6BF5B"/>
<path d="M761.603 176.334H678.397C663.066 176.334 650.523 188.853 650.523 204.154V283.717C650.523 292.341 657.631 299.435 666.272 299.435H667.944V308.337C667.944 312.093 671.011 315.292 674.913 315.292H678.397C682.16 315.292 685.366 312.232 685.366 308.337V299.435H755.61V308.337C755.61 312.093 758.676 315.292 762.578 315.292H766.063C769.965 315.292 773.031 312.232 773.031 308.337V299.435H773.728C782.369 299.435 789.477 292.341 789.477 283.717V204.154C789.477 188.853 776.934 176.334 761.603 176.334ZM684.39 287.195C684.251 287.195 683.972 287.195 683.833 287.195C680.488 287.195 677.561 285.804 675.47 283.717C673.38 281.631 672.125 278.71 672.125 275.511C672.125 268.973 677.422 263.826 683.833 263.826C690.383 263.826 695.54 269.112 695.54 275.511C695.54 281.77 690.662 286.916 684.39 287.195ZM744.46 275.511C744.46 268.973 749.756 263.826 756.167 263.826C762.578 263.826 767.875 269.112 767.875 275.511C767.875 278.71 766.62 281.631 764.53 283.717L756.585 287.195C756.446 287.195 756.307 287.195 756.167 287.195C749.617 287.195 744.46 282.048 744.46 275.511ZM774.843 244.075C774.843 251.725 768.571 257.984 760.906 257.984H680.07C672.404 257.984 666.132 251.725 666.132 244.075V205.128C666.132 197.477 672.404 191.218 680.07 191.218H760.767C768.432 191.218 774.704 197.477 774.704 205.128V244.075H774.843Z" fill="#5B81E2"/>
<path d="M642.16 203.319C639.094 203.319 636.585 205.823 636.585 208.883V229.33C636.585 232.391 639.094 234.894 642.16 234.894C645.227 234.894 647.735 232.391 647.735 229.33V208.883C647.735 205.823 645.227 203.319 642.16 203.319Z" fill="#5B81E2"/>
<path d="M798.815 203.319C795.749 203.319 793.24 205.823 793.24 208.883V229.33C793.24 232.391 795.749 234.894 798.815 234.894C801.882 234.894 804.39 232.391 804.39 229.33V208.883C804.39 205.823 801.882 203.319 798.815 203.319Z" fill="#5B81E2"/>
<path d="M658.909 336.202C659.885 336.202 660.303 336.897 660.303 337.871C660.303 338.845 659.885 339.54 658.909 339.54H655.425V347.469C656.401 346.912 657.376 346.356 658.213 345.8C658.352 345.66 658.631 345.661 658.909 345.661C659.328 345.661 659.746 345.939 660.024 346.634C660.164 346.912 660.164 347.191 660.164 347.469C660.164 348.025 659.885 348.442 659.467 348.721C658.213 349.555 656.819 350.39 655.425 351.224V366.247C655.425 369.168 653.753 370.281 651.105 370.281C649.85 370.281 648.596 370.142 647.76 370.002C647.063 369.863 646.645 369.307 646.645 368.472C646.645 368.333 646.645 368.055 646.645 367.916C646.784 367.081 647.342 366.664 647.899 366.664C648.038 366.664 648.038 366.664 648.178 366.664C648.875 366.803 649.85 366.942 650.408 366.942C651.662 366.942 651.941 366.664 651.941 365.551V353.033C650.686 353.589 649.432 354.285 648.178 354.702C648.038 354.841 647.76 354.841 647.62 354.841C647.063 354.841 646.505 354.424 646.227 353.728C646.087 353.45 646.087 353.172 646.087 353.033C646.087 352.337 646.366 351.92 646.923 351.642C648.596 350.946 650.268 350.251 651.941 349.416V339.679H647.62C646.784 339.679 646.366 338.984 646.366 338.01C646.366 337.036 646.784 336.341 647.62 336.341H651.941V328.412C651.941 327.439 652.498 327.022 653.613 327.022C654.728 327.022 655.425 327.439 655.425 328.412V336.341H658.909V336.202ZM689.571 348.999C690.129 349.277 690.547 349.833 690.547 350.529C690.547 350.807 690.408 351.224 690.268 351.503C689.85 352.198 689.432 352.476 688.735 352.476C688.456 352.476 688.038 352.337 687.76 352.198C683.718 350.251 677.864 345.8 674.659 341.905C674.38 341.488 674.101 341.348 673.962 341.348C673.822 341.348 673.544 341.488 673.265 341.905C670.059 346.078 665.599 349.694 661.279 352.198C661 352.337 660.582 352.476 660.303 352.476C659.746 352.476 659.188 352.198 658.909 351.642C658.77 351.363 658.631 350.946 658.631 350.668C658.631 350.112 658.909 349.555 659.467 349.277C663.648 347.051 668.108 343.713 671.174 339.54C671.871 338.567 672.986 338.149 673.962 338.149C674.937 338.149 676.052 338.567 676.889 339.54C680.373 343.713 685.251 347.051 689.571 348.999ZM660.861 334.95C660.024 334.95 659.606 334.394 659.606 333.42C659.606 332.446 660.024 331.89 660.861 331.89H666.296V328.412C666.296 327.578 666.993 327.022 667.969 327.022C668.944 327.022 669.641 327.578 669.641 328.412V331.89H678.143V328.412C678.143 327.578 678.84 327.022 679.815 327.022C680.791 327.022 681.488 327.578 681.488 328.412V331.89H688.317C689.153 331.89 689.571 332.446 689.571 333.42C689.571 334.394 689.153 334.95 688.317 334.95H681.488V338.706C681.488 339.54 680.791 339.958 679.815 339.958C678.84 339.958 678.143 339.401 678.143 338.706V334.95H669.781V338.706C669.781 339.54 669.084 340.097 668.108 340.097C667.132 340.097 666.436 339.54 666.436 338.706V334.95H660.861ZM681.906 354.98C684.554 354.98 685.808 355.954 685.808 358.457V365.969C685.808 368.611 684.415 369.446 681.906 369.446H666.575C663.927 369.446 662.673 368.472 662.673 365.969V358.457C662.673 355.815 664.066 354.98 666.575 354.98H681.906ZM680.93 366.386C681.906 366.386 682.324 366.108 682.324 365.273V359.292C682.324 358.318 681.906 358.179 680.93 358.179H667.411C666.436 358.179 666.017 358.457 666.017 359.292V365.273C666.017 366.247 666.436 366.386 667.411 366.386H680.93ZM679.676 348.303C680.652 348.303 681.209 348.86 681.209 349.972C681.209 350.807 680.652 351.503 679.815 351.503H668.944C668.108 351.503 667.551 350.807 667.551 349.972C667.551 348.999 668.108 348.303 669.084 348.303H679.676Z" fill="#5B81E2"/>
<path d="M657.516 334.811C658.491 334.811 658.91 335.506 658.91 336.48C658.91 337.454 658.491 338.149 657.516 338.149H654.031V346.078C655.007 345.521 655.983 344.965 656.819 344.409C656.958 344.27 657.237 344.27 657.516 344.27C657.934 344.27 658.352 344.548 658.631 345.243C658.77 345.521 658.77 345.8 658.77 346.078C658.77 346.634 658.491 347.051 658.073 347.33C656.819 348.164 655.425 348.999 654.031 349.833V364.856C654.031 367.777 652.359 368.89 649.711 368.89C648.457 368.89 647.202 368.751 646.366 368.611C645.669 368.472 645.251 367.916 645.251 367.081C645.251 366.942 645.251 366.664 645.251 366.525C645.39 365.69 645.948 365.273 646.505 365.273C646.645 365.273 646.645 365.273 646.784 365.273C647.481 365.412 648.457 365.551 649.014 365.551C650.268 365.551 650.547 365.273 650.547 364.16V351.642C649.293 352.198 648.038 352.894 646.784 353.311C646.645 353.45 646.366 353.45 646.227 353.45C645.669 353.45 645.112 353.033 644.833 352.337C644.693 352.059 644.693 351.781 644.693 351.642C644.693 350.946 644.972 350.529 645.53 350.251C647.202 349.555 648.875 348.86 650.547 348.025V338.288H646.227C645.39 338.288 644.972 337.593 644.972 336.619C644.972 335.646 645.39 334.95 646.227 334.95H650.547V327.021C650.547 326.048 651.105 325.631 652.22 325.631C653.335 325.631 654.031 326.048 654.031 327.021V334.95H657.516V334.811ZM688.178 347.608C688.735 347.886 689.153 348.442 689.153 349.138C689.153 349.416 689.014 349.833 688.875 350.112C688.457 350.807 688.038 351.085 687.342 351.085C687.063 351.085 686.645 350.946 686.366 350.807C682.324 348.86 676.47 344.409 673.265 340.514C672.986 340.097 672.707 339.958 672.568 339.958C672.429 339.958 672.15 340.097 671.871 340.514C668.666 344.687 664.206 348.303 659.885 350.807C659.606 350.946 659.188 351.085 658.91 351.085C658.352 351.085 657.795 350.807 657.516 350.251C657.376 349.972 657.237 349.555 657.237 349.277C657.237 348.721 657.516 348.164 658.073 347.886C662.254 345.66 666.714 342.322 669.781 338.149C670.477 337.176 671.592 336.758 672.568 336.758C673.544 336.758 674.659 337.176 675.495 338.149C678.979 342.322 683.857 345.66 688.178 347.608ZM659.467 333.559C658.631 333.559 658.213 333.003 658.213 332.029C658.213 331.055 658.631 330.499 659.467 330.499H664.903V327.021C664.903 326.187 665.599 325.631 666.575 325.631C667.551 325.631 668.247 326.187 668.247 327.021V330.499H676.749V327.021C676.749 326.187 677.446 325.631 678.422 325.631C679.397 325.631 680.094 326.187 680.094 327.021V330.499H686.923C687.76 330.499 688.178 331.055 688.178 332.029C688.178 333.003 687.76 333.559 686.923 333.559H680.094V337.315C680.094 338.149 679.397 338.567 678.422 338.567C677.446 338.567 676.749 338.01 676.749 337.315V333.559H668.387V337.315C668.387 338.149 667.69 338.706 666.714 338.706C665.739 338.706 665.042 338.149 665.042 337.315V333.559H659.467ZM680.512 353.589C683.16 353.589 684.415 354.563 684.415 357.066V364.578C684.415 367.22 683.021 368.055 680.512 368.055H665.181C662.533 368.055 661.279 367.081 661.279 364.578V357.066C661.279 354.424 662.673 353.589 665.181 353.589H680.512ZM679.537 364.995C680.512 364.995 680.93 364.717 680.93 363.882V357.901C680.93 356.927 680.512 356.788 679.537 356.788H666.018C665.042 356.788 664.624 357.066 664.624 357.901V363.882C664.624 364.856 665.042 364.995 666.018 364.995H679.537ZM678.282 346.912C679.258 346.912 679.815 347.469 679.815 348.582C679.815 349.416 679.258 350.112 678.422 350.112H667.551C666.714 350.112 666.157 349.416 666.157 348.582C666.157 347.608 666.714 346.912 667.69 346.912H678.282Z" fill="#F6BF5B"/>
<path d="M723.718 351.085C722.603 349.972 721.209 349.833 720.233 350.529C719.537 351.085 718.979 351.781 718.979 352.615C718.979 353.172 719.118 353.589 719.537 354.145C721.348 356.371 723.16 358.875 724.833 361.378C721.488 361.796 718.7 362.213 716.052 362.352C714.101 362.63 712.01 362.63 710.059 362.769L706.993 362.909C710.477 356.788 713.683 349.833 716.192 343.296C716.331 343.018 716.331 342.6 716.331 342.322C716.331 341.07 715.495 340.236 714.101 339.958C713.822 339.958 713.544 339.818 713.265 339.818C712.15 339.818 711.174 340.514 710.895 341.627C708.526 348.582 704.902 356.649 701.139 363.048C699.746 363.048 698.352 363.187 696.958 363.187C695.564 363.187 694.589 364.16 694.589 365.69V365.969C694.589 367.638 695.564 368.611 697.098 368.611C708.108 368.194 718.004 367.36 727.62 365.83C728.178 366.803 728.735 367.777 729.153 368.89C729.711 369.863 730.547 370.42 731.523 370.42C731.941 370.42 732.359 370.281 732.777 370.002C734.031 369.307 734.31 368.333 734.31 367.777C734.31 367.36 734.171 366.942 733.892 366.525C731.383 361.518 728.038 356.51 723.718 351.085Z" fill="#5B81E2"/>
<path d="M696.958 349.972C703.091 345.382 708.666 338.427 711.732 331.473C711.871 331.055 712.01 330.777 712.01 330.36C712.01 329.386 711.453 328.691 710.477 328.273C710.059 328.134 709.641 327.995 709.223 327.995C708.108 327.995 707.272 328.552 706.854 329.664C704.484 335.924 699.606 341.905 693.753 345.8C692.916 346.356 692.498 347.191 692.498 348.025C692.498 348.442 692.638 349.138 693.195 349.833C693.753 350.39 694.45 350.807 695.146 350.807C695.704 350.668 696.401 350.39 696.958 349.972Z" fill="#5B81E2"/>
<path d="M736.958 345.521C731.105 341.627 726.087 335.785 723.439 329.386C722.882 327.995 721.348 327.439 719.815 328.134C718.84 328.552 718.282 329.247 718.282 330.36C718.282 330.777 718.422 331.194 718.561 331.473C721.767 338.567 727.481 345.521 733.613 349.973C734.171 350.39 734.728 350.529 735.425 350.529C736.261 350.529 736.958 350.112 737.516 349.416C737.934 348.86 738.213 348.164 738.213 347.608C738.073 346.773 737.794 346.078 736.958 345.521Z" fill="#5B81E2"/>
<path d="M782.533 359.709H764.833V357.345H775.983C779.328 357.345 780.861 355.954 780.861 352.754V342.6C780.861 339.54 779.328 338.01 775.983 338.01H764.833V335.785H782.115C783.23 335.785 784.066 334.811 784.066 333.42C784.066 332.029 783.23 331.055 782.115 331.055H764.833V328.134C764.833 327.161 764.136 326.187 762.324 326.187C760.791 326.187 759.815 327.022 759.815 328.134V331.055H742.951C741.697 331.055 741 331.89 741 333.42C741 334.811 741.836 335.785 742.951 335.785H759.815V338.01H749.223C745.878 338.01 744.345 339.401 744.345 342.6V352.754C744.345 355.815 745.878 357.345 749.223 357.345H759.815V359.709H742.394C741.279 359.709 740.443 360.683 740.443 362.074C740.443 363.465 741.279 364.439 742.394 364.439H759.815V369.863C759.815 371.115 760.791 371.811 762.324 371.811C764.136 371.811 764.833 370.837 764.833 369.863V364.299H782.533C783.648 364.299 784.484 363.326 784.484 361.935C784.484 360.544 783.648 359.709 782.533 359.709ZM775.843 345.382H764.693V342.322H775.007C775.843 342.322 775.843 342.6 775.843 343.018V345.382ZM775.843 349.694V352.198C775.843 352.754 775.704 352.894 775.007 352.894H764.693V349.555H775.843V349.694ZM749.223 349.694H759.815V353.033H750.059C749.223 353.033 749.223 352.754 749.223 352.337V349.694ZM749.223 345.382V343.018C749.223 342.461 749.362 342.322 750.059 342.322H759.815V345.382H749.223Z" fill="#5B81E2"/>
</g>
</g>
<defs>
<filter id="filter0_d_4_3" x="612" y="155" width="220" height="241.164" filterUnits="userSpaceOnUse" color-interpolation-filters="sRGB">
<feFlood flood-opacity="0" result="BackgroundImageFix"/>
<feColorMatrix in="SourceAlpha" type="matrix" values="0 0 0 0 0 0 0 0 0 0 0 0 0 0 0 0 0 0 127 0" result="hardAlpha"/>
<feOffset dx="1" dy="1"/>
<feGaussianBlur stdDeviation="5"/>
<feColorMatrix type="matrix" values="0 0 0 0 0 0 0 0 0 0 0 0 0 0 0 0 0 0 0.2 0"/>
<feBlend mode="normal" in2="BackgroundImageFix" result="effect1_dropShadow_4_3"/>
<feBlend mode="normal" in="SourceGraphic" in2="effect1_dropShadow_4_3" result="shape"/>
</filter>
<linearGradient id="paint0_linear_4_3" x1="732" y1="521.487" x2="732" y2="-2.81922" gradientUnits="userSpaceOnUse">
<stop stop-color="#EAE9DF"/>
<stop offset="1" stop-color="#C6EAE8"/>
</linearGradient>
<clipPath id="clip0_4_3">
<rect width="1439" height="513" fill="white"/>
</clipPath>
<clipPath id="clip1_4_3">
<rect width="200" height="221.164" fill="white" transform="translate(621 164)"/>
</clipPath>
</defs>
</svg>
