<svg width="67" height="65" viewBox="0 0 67 65" fill="none" xmlns="http://www.w3.org/2000/svg">
<path d="M63.057 17.3063C62.9721 17.3063 62.8873 17.3063 62.8024 17.3912V9.49729C62.8024 9.15777 62.8024 8.73337 62.7175 8.39384C62.7175 8.30896 62.7175 8.22408 62.7175 8.1392C62.7175 3.89517 49.561 0.499947 33.3488 0.499947C17.1366 0.499947 3.89523 3.89517 3.89523 8.05432C3.89523 8.1392 3.89523 8.22408 3.89523 8.30896C3.81034 8.64849 3.72546 9.07289 3.72546 9.41241V17.3063C3.64058 17.3063 3.5557 17.2214 3.47082 17.2214C1.85809 17.3063 0.5 21.2957 0.5 26.2188C0.5 31.1419 1.85809 35.2161 3.5557 35.2161C3.64058 35.2161 3.72546 35.2161 3.81034 35.1312V53.0411C3.81034 55.8421 6.10212 58.1339 8.90318 58.1339H9.75199V58.2188V61.1896C9.75199 63.057 11.2798 64.4999 13.0623 64.4999H16.2878C18.0703 64.4999 19.5981 62.9721 19.5981 61.1896V58.2188V58.1339H47.1843V58.2188V61.1896C47.1843 62.9721 48.6273 64.4999 50.4947 64.4999H53.6353C55.5026 64.4999 56.9456 62.9721 56.9456 61.1896V58.2188V58.1339H57.7944C60.5955 58.1339 62.8873 55.927 62.8873 53.0411V35.1312C62.9721 35.1312 63.057 35.2161 63.1419 35.2161C64.8395 35.2161 66.1976 31.2267 66.1976 26.3037C66.1976 21.3806 64.7546 17.3063 63.057 17.3063ZM22.0597 4.31958H44.5531C45.5716 4.31958 46.4204 5.16838 46.4204 6.18695C46.4204 7.20552 45.5716 8.05432 44.5531 8.05432H22.0597C21.0411 8.05432 20.1923 7.20552 20.1923 6.18695C20.1923 5.16838 21.0411 4.31958 22.0597 4.31958ZM14.5902 52.9562C12.6379 52.9562 11.0252 51.3434 11.0252 49.3912C11.0252 47.4389 12.6379 45.8262 14.5902 45.8262C16.5424 45.8262 18.1552 47.4389 18.1552 49.3912C18.2401 51.3434 16.6273 52.9562 14.5902 52.9562ZM52.0225 52.9562C50.0703 52.9562 48.4576 51.3434 48.4576 49.3912C48.4576 47.4389 50.0703 45.8262 52.0225 45.8262C53.9748 45.8262 55.5875 47.4389 55.5875 49.3912C55.5875 51.3434 53.9748 52.9562 52.0225 52.9562ZM57.4549 37.423C57.4549 39.545 55.7573 41.2426 53.6353 41.2426H12.9775C10.8554 41.2426 9.15782 39.545 9.15782 37.423V15.0145C9.15782 12.8925 10.8554 11.1949 12.9775 11.1949H53.5504C55.6724 11.1949 57.37 12.8925 57.37 15.0145L57.4549 37.423Z" fill="#F6BF5B"/>
</svg>
