<svg width="23" height="24" viewBox="0 0 23 24" fill="none" xmlns="http://www.w3.org/2000/svg">
<path fill-rule="evenodd" clip-rule="evenodd" d="M14.118 0C14.7678 0 15.2945 0.526737 15.2945 1.1765L15.2945 19.5132L20.3451 14.4626C20.8045 14.0031 21.5494 14.0031 22.0089 14.4626C22.4684 14.922 22.4684 15.667 22.0089 16.1264L14.9499 23.1854C14.6134 23.5219 14.1074 23.6225 13.6678 23.4404C13.2281 23.2583 12.9415 22.8293 12.9415 22.3535L12.9415 1.1765C12.9415 0.526737 13.4682 0 14.118 0ZM8.68572 0.559565C9.12535 0.741665 9.412 1.17066 9.412 1.64651L9.41199 22.8235C9.41199 23.4733 8.88526 24 8.2355 24C7.58573 24 7.059 23.4733 7.059 22.8235L7.059 4.48683L2.00841 9.53742C1.54896 9.99687 0.80404 9.99687 0.344589 9.53741C-0.114863 9.07796 -0.114863 8.33305 0.344589 7.87359L7.40359 0.814598C7.74006 0.478121 8.2461 0.377465 8.68572 0.559565Z" fill="#999999"/>
</svg>
