<svg width="1045" height="434" viewBox="0 0 1045 434" fill="none" xmlns="http://www.w3.org/2000/svg">
<g opacity="0.6">
<path d="M733.388 210.342C733.388 204.912 729.052 200.569 723.632 200.569C722.114 200.569 720.597 201.003 719.296 201.655C719.079 196.442 714.96 192.315 709.54 192.315C704.337 192.315 700.218 196.442 699.784 201.437C698.7 201.003 697.399 200.569 696.098 200.569C690.678 200.569 686.342 204.912 686.342 210.342C686.342 215.772 690.678 220.116 696.098 220.116H724.282C729.486 219.681 733.388 215.555 733.388 210.342Z" fill="#F3EEEC"/>
<path d="M471.927 138.235C471.927 130.634 465.64 124.335 458.052 124.335C455.884 124.335 453.716 124.987 451.765 125.856C451.548 118.254 445.478 112.39 437.89 112.39C430.518 112.39 424.448 118.254 424.014 125.421C422.28 124.77 420.546 124.335 418.594 124.335C411.006 124.335 404.719 130.634 404.719 138.235C404.719 145.837 411.006 152.135 418.594 152.135H459.136C466.29 151.484 471.927 145.403 471.927 138.235Z" fill="#F3EEEC"/>
<path d="M845.69 83.2866C845.69 71.3412 835.934 61.5677 824.01 61.5677C820.542 61.5677 817.073 62.4365 814.254 63.9568C813.821 52.2286 804.282 42.8895 792.574 42.8895C781.084 42.8895 771.545 52.0114 770.894 63.3052C768.293 62.2193 765.474 61.5677 762.439 61.5677C750.515 61.5677 740.759 71.3412 740.759 83.2866C740.759 95.232 750.515 105.006 762.439 105.006H825.528C836.802 104.137 845.69 94.7976 845.69 83.2866Z" fill="#F3EEEC"/>
<path d="M506.398 37.0254C506.398 26.166 497.51 17.2612 486.67 17.2612C483.418 17.2612 480.382 18.13 477.781 19.4331C477.564 8.79086 468.892 0.320496 458.052 0.320496C447.646 0.320496 438.974 8.57367 438.323 18.9987C435.938 17.9128 433.337 17.4784 430.735 17.4784C419.895 17.4784 411.006 26.3832 411.006 37.2426C411.006 48.102 419.895 57.0068 430.735 57.0068H488.187C498.377 55.9208 506.398 47.2333 506.398 37.0254Z" fill="#F3EEEC"/>
<path d="M806.45 170.814C806.45 163.212 800.162 156.914 792.574 156.914C790.406 156.914 788.238 157.565 786.287 158.434C786.07 150.832 780 144.968 772.412 144.968C765.041 144.968 758.97 150.832 758.537 158C756.802 157.348 755.068 156.914 753.117 156.914C745.529 156.914 739.242 163.212 739.242 170.814C739.242 178.415 745.529 184.714 753.117 184.714H793.658C800.813 184.062 806.45 177.981 806.45 170.814Z" fill="#F3EEEC"/>
<path d="M231.279 96.9695C231.279 89.3679 224.992 83.0694 217.404 83.0694C215.236 83.0694 213.068 83.721 211.117 84.5898C210.9 76.9882 204.83 71.1241 197.242 71.1241C189.87 71.1241 183.8 76.9881 183.366 84.1554C181.632 83.5038 179.898 83.0694 177.946 83.0694C170.358 83.0694 164.071 89.3679 164.071 96.9695C164.071 104.571 170.358 110.87 177.946 110.87H218.488C225.642 110.218 231.279 104.354 231.279 96.9695Z" fill="#F3EEEC"/>
<path d="M726.884 287.01H717.995V295.915H726.884V287.01Z" fill="#D3B9C7"/>
<path d="M780.434 323.715H710.19V365.849H780.434V323.715Z" fill="#F4CD8F"/>
<path d="M711.708 295.915H779.133L785.637 323.715H705.204L711.708 295.915Z" fill="#FA7F25"/>
<path d="M754.418 341.959H736.206V365.849H754.418V341.959Z" fill="#283B6E"/>
<path d="M730.353 334.574H716.261V348.691H730.353V334.574Z" fill="#283B6E"/>
<path d="M723.415 334.574V348.909" stroke="#D3B9C7" stroke-width="0.75" stroke-miterlimit="10"/>
<path d="M730.353 341.741H716.261" stroke="#D3B9C7" stroke-width="0.75" stroke-miterlimit="10"/>
<path d="M774.363 334.574H760.271V348.691H774.363V334.574Z" fill="#283B6E"/>
<path d="M767.426 334.574V348.909" stroke="#D3B9C7" stroke-width="0.75" stroke-miterlimit="10"/>
<path d="M774.363 341.741H760.271" stroke="#D3B9C7" stroke-width="0.75" stroke-miterlimit="10"/>
<path d="M686.559 126.29H629.541V149.746H686.559V126.29Z" fill="#F2E6D1"/>
<path d="M676.586 103.051H639.73V126.507H676.586V103.051Z" fill="#EFE8DC"/>
<path d="M699.134 149.746H615.666V433.178H699.134V149.746Z" fill="#FAE6C3"/>
<path d="M640.814 159.737H626.939V173.637H640.814V159.737Z" fill="#283B6E"/>
<path d="M665.096 159.737H651.221V173.637H665.096V159.737Z" fill="#283B6E"/>
<path d="M689.161 159.737H675.286V173.637H689.161V159.737Z" fill="#283B6E"/>
<path d="M640.814 184.062H626.939V197.962H640.814V184.062Z" fill="#283B6E"/>
<path d="M665.096 184.062H651.221V197.962H665.096V184.062Z" fill="#283B6E"/>
<path d="M689.161 184.062H675.286V197.962H689.161V184.062Z" fill="#283B6E"/>
<path d="M640.814 208.17H626.939V222.07H640.814V208.17Z" fill="#283B6E"/>
<path d="M665.096 208.17H651.221V222.07H665.096V208.17Z" fill="#283B6E"/>
<path d="M689.161 208.17H675.286V222.07H689.161V208.17Z" fill="#283B6E"/>
<path d="M640.814 232.495H626.939V246.396H640.814V232.495Z" fill="#283B6E"/>
<path d="M665.096 232.495H651.221V246.396H665.096V232.495Z" fill="#283B6E"/>
<path d="M689.161 232.495H675.286V246.396H689.161V232.495Z" fill="#283B6E"/>
<path d="M640.814 256.603H626.939V270.503H640.814V256.603Z" fill="#283B6E"/>
<path d="M665.096 256.603H651.221V270.503H665.096V256.603Z" fill="#283B6E"/>
<path d="M689.161 256.603H675.286V270.503H689.161V256.603Z" fill="#283B6E"/>
<path d="M640.814 280.711H626.939V294.611H640.814V280.711Z" fill="#283B6E"/>
<path d="M665.096 280.711H651.221V294.611H665.096V280.711Z" fill="#283B6E"/>
<path d="M689.161 280.711H675.286V294.611H689.161V280.711Z" fill="#283B6E"/>
<path d="M640.814 305.036H626.939V318.937H640.814V305.036Z" fill="#283B6E"/>
<path d="M665.096 305.036H651.221V318.937H665.096V305.036Z" fill="#283B6E"/>
<path d="M689.161 305.036H675.286V318.937H689.161V305.036Z" fill="#283B6E"/>
<path d="M640.814 329.144H626.939V343.044H640.814V329.144Z" fill="#283B6E"/>
<path d="M665.096 329.144H651.221V343.044H665.096V329.144Z" fill="#283B6E"/>
<path d="M689.161 329.144H675.286V343.044H689.161V329.144Z" fill="#283B6E"/>
<path d="M640.814 353.47H626.939V367.37H640.814V353.47Z" fill="#283B6E"/>
<path d="M665.096 353.47H651.221V367.37H665.096V353.47Z" fill="#283B6E"/>
<path d="M689.161 353.47H675.286V367.37H689.161V353.47Z" fill="#283B6E"/>
<path d="M640.814 377.577H626.939V391.478H640.814V377.577Z" fill="#283B6E"/>
<path d="M665.096 377.577H651.221V391.478H665.096V377.577Z" fill="#283B6E"/>
<path d="M689.161 377.577H675.286V391.478H689.161V377.577Z" fill="#283B6E"/>
<path d="M640.814 401.685H626.939V415.586H640.814V401.685Z" fill="#283B6E"/>
<path d="M665.096 401.685H651.221V415.586H665.096V401.685Z" fill="#283B6E"/>
<path d="M689.161 401.685H675.286V415.586H689.161V401.685Z" fill="#283B6E"/>
<path d="M660.326 141.71H655.774V149.746H660.326V141.71Z" fill="#283B6E"/>
<path d="M660.326 118.254H655.774V126.29H660.326V118.254Z" fill="#283B6E"/>
<path d="M651.871 420.798H645.584V431.658H651.871V420.798Z" fill="#E59E97"/>
<path d="M648.619 422.101C658.078 422.101 665.746 414.419 665.746 404.943C665.746 395.467 658.078 387.785 648.619 387.785C639.16 387.785 631.492 395.467 631.492 404.943C631.492 414.419 639.16 422.101 648.619 422.101Z" fill="#C3CD66"/>
<path d="M1014.36 377.143H1008.07V388.003H1014.36V377.143Z" fill="#E59E97"/>
<path d="M1011.33 378.446C1020.78 378.446 1028.45 370.764 1028.45 361.288C1028.45 351.812 1020.78 344.13 1011.33 344.13C1001.87 344.13 994.198 351.812 994.198 361.288C994.198 370.764 1001.87 378.446 1011.33 378.446Z" fill="#C3CD66"/>
<path d="M927.858 342.176H921.571V353.035H927.858V342.176Z" fill="#E59E97"/>
<path d="M924.823 343.479C934.282 343.479 941.95 335.797 941.95 326.321C941.95 316.845 934.282 309.163 924.823 309.163C915.363 309.163 907.695 316.845 907.695 326.321C907.695 335.797 915.363 343.479 924.823 343.479Z" fill="#C3CD66"/>
<path d="M906.394 337.832H900.107V348.691H906.394V337.832Z" fill="#E59E97"/>
<path d="M903.359 339.135C912.818 339.135 920.486 331.453 920.486 321.977C920.486 312.501 912.818 304.819 903.359 304.819C893.9 304.819 886.232 312.501 886.232 321.977C886.232 331.453 893.9 339.135 903.359 339.135Z" fill="#C3CD66"/>
<path d="M837.018 351.298H830.731V362.157H837.018V351.298Z" fill="#E59E97"/>
<path d="M833.983 352.601C843.442 352.601 851.11 344.919 851.11 335.443C851.11 325.967 843.442 318.285 833.983 318.285C824.524 318.285 816.856 325.967 816.856 335.443C816.856 344.919 824.524 352.601 833.983 352.601Z" fill="#C3CD66"/>
<path d="M760.488 431.875C760.488 431.875 789.539 346.52 903.142 346.52C1016.75 346.52 1044.93 431.875 1044.93 431.875H760.488Z" fill="#C3CD66"/>
<path d="M793.225 367.804H786.938V378.663H793.225V367.804Z" fill="#E59E97"/>
<path d="M789.973 369.107C799.432 369.107 807.1 361.425 807.1 351.949C807.1 342.473 799.432 334.791 789.973 334.791C780.514 334.791 772.846 342.473 772.846 351.949C772.846 361.425 780.514 369.107 789.973 369.107Z" fill="#C3CD66"/>
<path d="M887.099 373.668H879.295V387.351H887.099V373.668Z" fill="#E59E97"/>
<path d="M883.197 375.406C895.051 375.406 904.66 365.779 904.66 353.904C904.66 342.029 895.051 332.402 883.197 332.402C871.343 332.402 861.734 342.029 861.734 353.904C861.734 365.779 871.343 375.406 883.197 375.406Z" fill="#C3CD66"/>
<path d="M964.93 374.103H957.126V387.785H964.93V374.103Z" fill="#E59E97"/>
<path d="M961.028 375.84C972.882 375.84 982.491 366.213 982.491 354.338C982.491 342.463 972.882 332.837 961.028 332.837C949.174 332.837 939.565 342.463 939.565 354.338C939.565 366.213 949.174 375.84 961.028 375.84Z" fill="#C3CD66"/>
<path d="M25.7528 418.192H17.948V431.875H25.7528V418.192Z" fill="#E59E97"/>
<path d="M21.8504 419.929C33.7042 419.929 43.3136 410.303 43.3136 398.428C43.3136 386.553 33.7042 376.926 21.8504 376.926C9.99661 376.926 0.387207 386.553 0.387207 398.428C0.387207 410.303 9.99661 419.929 21.8504 419.929Z" fill="#C3CD66"/>
<path d="M126.782 418.192H118.977V431.875H126.782V418.192Z" fill="#E59E97"/>
<path d="M122.879 419.929C134.733 419.929 144.342 410.303 144.342 398.428C144.342 386.553 134.733 376.926 122.879 376.926C111.025 376.926 101.416 386.553 101.416 398.428C101.416 410.303 111.025 419.929 122.879 419.929Z" fill="#C3CD66"/>
<path d="M497.726 120.426V431.875H553.227V170.814L497.726 120.426Z" fill="#7F94C6"/>
<path d="M565.585 182.108L553.227 170.814V431.875H565.585V182.108Z" fill="#283B6E"/>
<path d="M280.71 136.932H224.342V431.658H280.71V136.932Z" fill="#283B6E"/>
<path d="M418.594 136.932H361.359V431.658H418.594V136.932Z" fill="#7F94C6"/>
<path d="M431.602 136.932H418.594V431.658H431.602V136.932Z" fill="#283B6E"/>
<path d="M329.056 102.616V432.309H343.581V90.8882C338.595 94.5805 333.609 98.4898 329.056 102.616Z" fill="#283B6E"/>
<path d="M248.19 313.29V432.309H329.056V102.616C242.986 179.284 248.19 313.29 248.19 313.29Z" fill="#7F94C6"/>
<path d="M596.154 231.409H406.02V430.789H596.154V231.409Z" fill="#FFB631"/>
<path d="M526.127 214.469H476.046V231.409H526.127V214.469Z" fill="#FFB631"/>
<path d="M464.339 225.328H427.266V231.409H464.339V225.328Z" fill="#FA7F25"/>
<path d="M574.907 225.328H537.834V231.409H574.907V225.328Z" fill="#FA7F25"/>
<path d="M596.154 380.835H406.02V431.658H596.154V380.835Z" fill="#F3EEEC"/>
<path d="M441.142 247.481H422.28V281.363H441.142V247.481Z" fill="#283B6E"/>
<path d="M475.83 247.481H456.968V281.363H475.83V247.481Z" fill="#283B6E"/>
<path d="M510.518 247.481H491.656V281.363H510.518V247.481Z" fill="#283B6E"/>
<path d="M545.206 247.481H526.344V281.363H545.206V247.481Z" fill="#283B6E"/>
<path d="M579.894 247.481H561.032V281.363H579.894V247.481Z" fill="#283B6E"/>
<path d="M441.142 290.919H422.28V324.801H441.142V290.919Z" fill="#283B6E"/>
<path d="M475.83 290.919H456.968V324.801H475.83V290.919Z" fill="#283B6E"/>
<path d="M510.518 290.919H491.656V324.801H510.518V290.919Z" fill="#283B6E"/>
<path d="M545.206 290.919H526.344V324.801H545.206V290.919Z" fill="#283B6E"/>
<path d="M579.894 290.919H561.032V324.801H579.894V290.919Z" fill="#283B6E"/>
<path d="M441.142 334.357H422.28V368.238H441.142V334.357Z" fill="#283B6E"/>
<path d="M475.83 334.357H456.968V368.238H475.83V334.357Z" fill="#283B6E"/>
<path d="M510.518 334.357H491.656V368.238H510.518V334.357Z" fill="#283B6E"/>
<path d="M545.206 334.357H526.344V368.238H545.206V334.357Z" fill="#283B6E"/>
<path d="M579.894 334.357H561.032V368.238H579.894V334.357Z" fill="#283B6E"/>
<path d="M475.83 392.346H422.28V420.146H475.83V392.346Z" fill="#283B6E"/>
<path d="M448.946 392.346V420.146" stroke="#F3EEEC" stroke-miterlimit="10"/>
<path d="M579.894 392.346H526.344V420.146H579.894V392.346Z" fill="#283B6E"/>
<path d="M553.227 392.346V420.146" stroke="#F3EEEC" stroke-miterlimit="10"/>
<path d="M515.504 406.246H486.886V431.657H515.504V406.246Z" fill="#283B6E"/>
<path d="M855.663 353.035H846.774V361.94H855.663V353.035Z" fill="#A5919D"/>
<path d="M909.43 389.74H839.186V431.875H909.43V389.74Z" fill="#F4CD8F"/>
<path d="M840.487 361.94H907.912L914.416 389.74H833.983L840.487 361.94Z" fill="#283B6E"/>
<path d="M883.414 407.984H865.202V431.875H883.414V407.984Z" fill="#283B6E"/>
<path d="M859.132 400.6H845.04V414.717H859.132V400.6Z" fill="#283B6E"/>
<path d="M852.194 400.6V414.934" stroke="#D3B9C7" stroke-width="0.75" stroke-miterlimit="10"/>
<path d="M859.349 407.767H845.04" stroke="#D3B9C7" stroke-width="0.75" stroke-miterlimit="10"/>
<path d="M903.359 400.6H889.267V414.717H903.359V400.6Z" fill="#283B6E"/>
<path d="M896.205 400.6V414.934" stroke="#D3B9C7" stroke-width="0.75" stroke-miterlimit="10"/>
<path d="M903.359 407.767H889.267" stroke="#D3B9C7" stroke-width="0.75" stroke-miterlimit="10"/>
<path d="M946.502 353.035H937.614V361.94H946.502V353.035Z" fill="#FA7F25"/>
<path d="M1000.05 389.74H929.809V431.875H1000.05V389.74Z" fill="#FA7F25"/>
<path d="M931.326 361.94H998.751L1005.26 389.74H924.822L931.326 361.94Z" fill="#283B6E"/>
<path d="M974.036 407.984H955.825V431.875H974.036V407.984Z" fill="#283B6E"/>
<path d="M949.971 400.6H935.879V414.717H949.971V400.6Z" fill="#283B6E"/>
<path d="M943.034 400.6V414.934" stroke="#E25B6C" stroke-width="0.75" stroke-miterlimit="10"/>
<path d="M949.971 407.767H935.879" stroke="#E25B6C" stroke-width="0.75" stroke-miterlimit="10"/>
<path d="M993.982 400.6H979.89V414.717H993.982V400.6Z" fill="#283B6E"/>
<path d="M987.044 400.6V414.934" stroke="#E25B6C" stroke-width="0.75" stroke-miterlimit="10"/>
<path d="M994.198 407.767H979.89" stroke="#E25B6C" stroke-width="0.75" stroke-miterlimit="10"/>
<path d="M50.0346 353.035H41.1458V361.94H50.0346V353.035Z" fill="#FA7F25"/>
<path d="M103.584 389.74H33.3408V431.875H103.584V389.74Z" fill="#FEE6C1"/>
<path d="M34.8585 361.94H102.283L108.787 389.74H28.3545L34.8585 361.94Z" fill="#283B6E"/>
<path d="M77.5682 407.984H59.3569V431.875H77.5682V407.984Z" fill="#283B6E"/>
<path d="M53.5034 400.6H39.4114V414.717H53.5034V400.6Z" fill="#283B6E"/>
<path d="M46.5657 400.6V414.934" stroke="#E59E97" stroke-width="0.75" stroke-miterlimit="10"/>
<path d="M53.5034 407.767H39.4114" stroke="#E59E97" stroke-width="0.75" stroke-miterlimit="10"/>
<path d="M97.5139 400.6H83.4219V414.717H97.5139V400.6Z" fill="#283B6E"/>
<path d="M90.5762 400.6V414.934" stroke="#E59E97" stroke-width="0.75" stroke-miterlimit="10"/>
<path d="M97.7307 407.767H83.4219" stroke="#E59E97" stroke-width="0.75" stroke-miterlimit="10"/>
<path d="M813.387 389.74H743.144V347.605H644.283V431.875H813.387V389.74Z" fill="#FFB631"/>
<path d="M743.144 361.94H813.387L823.577 389.74H743.144V361.94Z" fill="#283B6E"/>
<path d="M649.703 305.905H735.99L752.25 347.605H633.443L649.703 305.905Z" fill="#283B6E"/>
<path d="M793.658 407.984H757.236V431.875H793.658V407.984Z" fill="#EAE9DF"/>
<path d="M703.47 407.984H685.258V431.875H703.47V407.984Z" fill="#283B6E"/>
<path d="M667.481 356.727C662.061 356.727 657.508 361.288 657.508 366.718V394.953H677.454V366.718C677.454 361.071 672.901 356.727 667.481 356.727Z" fill="#283B6E"/>
<path d="M667.481 356.727V394.953" stroke="#E59E97" stroke-width="0.75" stroke-miterlimit="10"/>
<path d="M657.508 384.745H677.454" stroke="#E59E97" stroke-width="0.75" stroke-miterlimit="10"/>
<path d="M657.508 374.754H677.454" stroke="#E59E97" stroke-width="0.75" stroke-miterlimit="10"/>
<path d="M657.508 364.981H677.454" stroke="#E59E97" stroke-width="0.75" stroke-miterlimit="10"/>
<path d="M721.247 356.727C715.827 356.727 711.274 361.288 711.274 366.718V394.953H731.22V366.718C731.22 361.071 726.667 356.727 721.247 356.727Z" fill="#283B6E"/>
<path d="M721.247 356.727V394.953" stroke="#E59E97" stroke-width="0.75" stroke-miterlimit="10"/>
<path d="M711.274 384.745H731.22" stroke="#E59E97" stroke-width="0.75" stroke-miterlimit="10"/>
<path d="M711.274 374.754H731.22" stroke="#E59E97" stroke-width="0.75" stroke-miterlimit="10"/>
<path d="M711.274 364.981H731.22" stroke="#E59E97" stroke-width="0.75" stroke-miterlimit="10"/>
<path d="M674.418 404.943H660.326V419.061H674.418V404.943Z" fill="#283B6E"/>
<path d="M667.481 404.943V419.278" stroke="#E59E97" stroke-width="0.75" stroke-miterlimit="10"/>
<path d="M674.635 412.111H660.326" stroke="#E59E97" stroke-width="0.75" stroke-miterlimit="10"/>
<path d="M728.185 404.943H714.093V419.061H728.185V404.943Z" fill="#283B6E"/>
<path d="M721.247 404.943V419.278" stroke="#E59E97" stroke-width="0.75" stroke-miterlimit="10"/>
<path d="M728.402 412.111H714.093" stroke="#E59E97" stroke-width="0.75" stroke-miterlimit="10"/>
<path d="M694.364 366.501C696.878 366.501 698.917 364.459 698.917 361.94C698.917 359.421 696.878 357.379 694.364 357.379C691.85 357.379 689.811 359.421 689.811 361.94C689.811 364.459 691.85 366.501 694.364 366.501Z" fill="#EAE9DF"/>
<path d="M667.481 293.525H658.592V305.905H667.481V293.525Z" fill="#FA7F25"/>
<path d="M290.682 232.495H127.649V432.526H290.682V232.495Z" fill="#F4CD8F"/>
<path d="M290.682 251.391H127.649V264.422H290.682V251.391Z" fill="#283B6E"/>
<path d="M290.682 275.282H127.649V288.313H290.682V275.282Z" fill="#283B6E"/>
<path d="M290.682 299.172H127.649V312.204H290.682V299.172Z" fill="#283B6E"/>
<path d="M290.682 323.063H127.649V336.094H290.682V323.063Z" fill="#283B6E"/>
<path d="M290.682 346.954H127.649V359.985H290.682V346.954Z" fill="#283B6E"/>
<path d="M290.682 370.845H127.649V383.876H290.682V370.845Z" fill="#283B6E"/>
<path d="M290.682 394.735H127.649V407.767H290.682V394.735Z" fill="#283B6E"/>
<path d="M216.97 413.197H201.578V433.178H216.97V413.197Z" fill="#283B6E"/>
<path d="M209.165 220.984H145.209V232.713H209.165V220.984Z" fill="#FA7F25"/>
<path d="M611.763 420.798H605.476V431.658H611.763V420.798Z" fill="#E59E97"/>
<path d="M608.728 422.101C618.187 422.101 625.855 414.419 625.855 404.943C625.855 395.467 618.187 387.785 608.728 387.785C599.269 387.785 591.601 395.467 591.601 404.943C591.601 414.419 599.269 422.101 608.728 422.101Z" fill="#C3CD66"/>
<path d="M396.698 420.798H390.41V431.658H396.698V420.798Z" fill="#E59E97"/>
<path d="M393.446 422.101C402.905 422.101 410.573 414.419 410.573 404.943C410.573 395.467 402.905 387.785 393.446 387.785C383.987 387.785 376.318 395.467 376.318 404.943C376.318 414.419 383.987 422.101 393.446 422.101Z" fill="#C3CD66"/>
<path d="M746.396 420.798H740.109V431.658H746.396V420.798Z" fill="#E25B6C"/>
<path d="M743.144 422.101C752.603 422.101 760.271 414.419 760.271 404.943C760.271 395.467 752.603 387.785 743.144 387.785C733.685 387.785 726.017 395.467 726.017 404.943C726.017 414.419 733.685 422.101 743.144 422.101Z" fill="#C3CD66"/>
<path d="M351.82 420.798H345.533V431.658H351.82V420.798Z" fill="#E59E97"/>
<path d="M348.785 422.101C358.244 422.101 365.912 414.419 365.912 404.943C365.912 395.467 358.244 387.785 348.785 387.785C339.326 387.785 331.658 395.467 331.658 404.943C331.658 414.419 339.326 422.101 348.785 422.101Z" fill="#C3CD66"/>
<path d="M263.366 420.798H257.078V431.658H263.366V420.798Z" fill="#E59E97"/>
<path d="M260.33 422.101C269.79 422.101 277.458 414.419 277.458 404.943C277.458 395.467 269.79 387.785 260.33 387.785C250.871 387.785 243.203 395.467 243.203 404.943C243.203 414.419 250.871 422.101 260.33 422.101Z" fill="#C3CD66"/>
</g>
</svg>
