<svg width="40" height="40" viewBox="0 0 40 40" fill="none" xmlns="http://www.w3.org/2000/svg">
<path d="M38.1371 10.7374C38.0854 10.7374 38.0336 10.7374 37.9819 10.7891V5.9767C37.9819 5.76971 37.9819 5.51098 37.9301 5.304C37.9301 5.25225 37.9301 5.2005 37.9301 5.14876C37.9301 2.56143 29.9094 0.491577 20.0259 0.491577C10.1423 0.491577 2.06986 2.56143 2.06986 5.09701C2.06986 5.14876 2.06986 5.2005 2.06986 5.25225C2.01811 5.45924 1.96636 5.71797 1.96636 5.92495V10.7374C1.91462 10.7374 1.86287 10.6856 1.81113 10.6856C0.827943 10.7374 0 13.1695 0 16.1707C0 19.172 0.827943 21.6559 1.86287 21.6559C1.91462 21.6559 1.96636 21.6559 2.01811 21.6041V32.5226C2.01811 34.2303 3.41526 35.6274 5.1229 35.6274H5.64036V35.6792V37.4903C5.64036 38.6287 6.5718 39.5084 7.65847 39.5084H9.62484C10.7115 39.5084 11.6429 38.577 11.6429 37.4903V35.6792V35.6274H28.4605V35.6792V37.4903C28.4605 38.577 29.3402 39.5084 30.4787 39.5084H32.3933C33.5317 39.5084 34.4114 38.577 34.4114 37.4903V35.6792V35.6274H34.9288C36.6365 35.6274 38.0336 34.282 38.0336 32.5226V21.6041C38.0854 21.6041 38.1371 21.6559 38.1889 21.6559C39.2238 21.6559 40.0517 19.2238 40.0517 16.2225C40.0517 13.2212 39.1721 10.7374 38.1371 10.7374ZM13.1436 2.82017H26.8564C27.4774 2.82017 27.9948 3.33763 27.9948 3.95859C27.9948 4.57955 27.4774 5.09701 26.8564 5.09701H13.1436C12.5226 5.09701 12.0052 4.57955 12.0052 3.95859C12.0052 3.33763 12.5226 2.82017 13.1436 2.82017ZM8.58991 32.4709C7.39974 32.4709 6.41656 31.4877 6.41656 30.2975C6.41656 29.1074 7.39974 28.1242 8.58991 28.1242C9.78008 28.1242 10.7633 29.1074 10.7633 30.2975C10.815 31.4877 9.83182 32.4709 8.58991 32.4709ZM31.4101 32.4709C30.2199 32.4709 29.2367 31.4877 29.2367 30.2975C29.2367 29.1074 30.2199 28.1242 31.4101 28.1242C32.6003 28.1242 33.5834 29.1074 33.5834 30.2975C33.5834 31.4877 32.6003 32.4709 31.4101 32.4709ZM34.7219 23.0013C34.7219 24.2949 33.6869 25.3299 32.3933 25.3299H7.60673C6.31307 25.3299 5.27814 24.2949 5.27814 23.0013V9.34022C5.27814 8.04656 6.31307 7.01163 7.60673 7.01163H32.3415C33.6352 7.01163 34.6701 8.04656 34.6701 9.34022L34.7219 23.0013Z" fill="#5B81E2"/>
</svg>
