<svg width="220" height="242" viewBox="0 0 220 242" fill="none" xmlns="http://www.w3.org/2000/svg">
<g clip-path="url(#clip0_127_615)" filter="url(#filter0_d_127_615)">
<path d="M193.713 98.7191L192.948 98.9039V99.6912V135.3C192.948 146.588 186.488 156.263 176.921 160.97L176.362 161.245V161.867C176.362 161.865 176.36 161.891 176.323 162.042L176.317 162.065C176.285 162.189 176.223 162.435 176.223 162.702V163.397L176.875 163.639C182.477 165.72 186.537 171.189 186.537 177.864C186.537 181.394 185.358 184.662 183.392 187.278L183.192 187.545V187.879V195.946V196.314L183.43 196.595C185.639 199.188 186.955 202.711 186.955 206.518C186.955 215.033 180.408 221.792 172.066 221.792H165.794H165.255L164.959 222.242C162.215 226.416 157.509 229.164 151.857 229.164C146.205 229.164 141.5 226.416 138.755 222.242L138.459 221.792H137.92H134.296H133.828L133.529 222.151C132.216 223.723 130.644 225.031 128.67 226.082L128.662 226.086L128.654 226.09C126.294 227.399 123.673 228.051 121.195 228.051C117.678 228.051 114.263 226.749 111.487 224.639L111.16 224.39L110.753 224.443C103.271 225.411 95.5043 225.965 87.1714 226.243H86.77C84.5289 226.243 82.5641 225.85 80.5903 225.062L80.1496 224.886L79.7346 225.117C77.4002 226.411 74.5072 227.078 71.439 227.078H56.108C53.708 227.078 51.4669 226.678 49.5101 225.897L49.0939 225.731L48.6929 225.931C46.3518 227.099 43.7242 227.634 40.6376 227.634C38.053 227.634 35.7809 227.362 33.9432 226.838L33.9316 226.834C31.0508 226.05 28.5743 224.485 26.7554 222.411L26.7104 222.36L26.6589 222.315C23.6595 219.712 21.7073 215.809 21.7073 211.525C21.7073 210.704 21.7093 209.565 22.0901 208.172L22.0992 208.139L22.1059 208.105C22.3634 206.82 22.7442 205.805 23.3929 204.639L23.65 204.178L23.4132 203.705C22.9968 202.874 22.5937 202.069 22.1912 201.133C21.552 199.467 21.2892 197.652 21.2892 195.946C21.2892 193.336 21.9419 190.869 23.2413 188.665L23.5177 188.196L23.2739 187.709C22.2309 185.627 21.7073 183.416 21.7073 180.924C21.7073 176.087 23.7948 172.058 27.1886 169.323L27.4791 169.088L27.5452 168.721C28.455 163.662 32.0942 159.51 37.0358 157.953L38.6895 157.432L37.4102 156.261C35.8024 154.79 34.4564 153.18 33.2363 151.422L33.1777 151.337L33.1031 151.266C27.575 146.018 24.0767 138.625 24.0767 130.432V97.6047V97.0379L23.5904 96.7468C20.9255 95.151 18.5426 92.8978 16.9651 90.2737L16.8786 90.1299L16.7499 90.0221C12.6342 86.5771 10 81.5631 10 75.9056V55.4584C10 46.2291 16.8726 38.5719 25.7327 37.2521L26.3184 37.1648L26.5235 36.6093C32.2363 21.1338 47.34 10 64.7491 10H147.955C161.421 10 173.392 16.5146 180.877 26.701L180.922 26.7627L180.977 26.8167C183.967 29.8015 186.416 33.1949 188.322 36.8631L188.541 37.2862L189.008 37.3818C194.155 38.4353 198.385 41.5951 201.037 45.9624L201.128 46.1124L201.265 46.2224C205.358 49.5164 208 54.6584 208 60.3267V80.774C208 89.4713 201.926 96.736 193.713 98.7191Z" fill="white" fill-opacity="0.8" stroke="white" stroke-width="2"/>
<path d="M153.422 26.4661H70.2161C54.8851 26.4661 42.3416 38.9848 42.3416 54.2854V133.849C42.3416 142.473 49.4496 149.567 58.0907 149.567H59.7632V158.469C59.7632 162.225 62.8294 165.424 66.7318 165.424H70.2161C73.9792 165.424 77.1848 162.364 77.1848 158.469V149.567H147.429V158.469C147.429 162.225 150.495 165.424 154.397 165.424H157.882C161.784 165.424 164.85 162.364 164.85 158.469V149.567H165.547C174.188 149.567 181.296 142.473 181.296 133.849V54.2854C181.296 38.9848 168.753 26.4661 153.422 26.4661ZM76.2092 137.326C76.0698 137.326 75.791 137.326 75.6517 137.326C72.3067 137.326 69.3799 135.935 67.2893 133.849C65.1987 131.762 63.9443 128.841 63.9443 125.642C63.9443 119.105 69.2405 113.958 75.6517 113.958C82.2022 113.958 87.359 119.244 87.359 125.642C87.359 131.901 82.4809 137.048 76.2092 137.326ZM136.279 125.642C136.279 119.105 141.575 113.958 147.986 113.958C154.397 113.958 159.693 119.244 159.693 125.642C159.693 128.841 158.439 131.762 156.349 133.849L148.404 137.326C148.265 137.326 148.126 137.326 147.986 137.326C141.436 137.326 136.279 132.18 136.279 125.642ZM166.662 94.2062C166.662 101.857 160.39 108.116 152.725 108.116H71.8886C64.2231 108.116 57.9513 101.857 57.9513 94.2062V55.2591C57.9513 47.6088 64.2231 41.3494 71.8886 41.3494H152.585C160.251 41.3494 166.523 47.6088 166.523 55.2591V94.2062H166.662Z" fill="#F6BF5B"/>
<path d="M33.9792 53.4509C30.913 53.4509 28.4043 55.9546 28.4043 59.0147V79.462C28.4043 82.5221 30.913 85.0259 33.9792 85.0259C37.0454 85.0259 39.5541 82.5221 39.5541 79.462V59.0147C39.5541 55.9546 37.0454 53.4509 33.9792 53.4509Z" fill="#F6BF5B"/>
<path d="M190.634 53.4509C187.568 53.4509 185.059 55.9546 185.059 59.0147V79.462C185.059 82.5221 187.568 85.0259 190.634 85.0259C193.7 85.0259 196.209 82.5221 196.209 79.462V59.0147C196.209 55.9546 193.7 53.4509 190.634 53.4509Z" fill="#F6BF5B"/>
<path d="M149.603 21.3345H66.3973C51.0663 21.3345 38.5227 33.8532 38.5227 49.1538V128.717C38.5227 137.341 45.6307 144.435 54.2718 144.435H55.9443V153.337C55.9443 157.093 59.0105 160.292 62.9129 160.292H66.3973C70.1603 160.292 73.3659 157.232 73.3659 153.337V144.435H143.61V153.337C143.61 157.093 146.676 160.292 150.578 160.292H154.063C157.965 160.292 161.031 157.232 161.031 153.337V144.435H161.728C170.369 144.435 177.477 137.341 177.477 128.717V49.1538C177.477 33.8532 164.934 21.3345 149.603 21.3345ZM72.3903 132.195C72.2509 132.195 71.9722 132.195 71.8328 132.195C68.4879 132.195 65.561 130.804 63.4704 128.717C61.3798 126.631 60.1255 123.71 60.1255 120.511C60.1255 113.973 65.4217 108.826 71.8328 108.826C78.3833 108.826 83.5401 114.112 83.5401 120.511C83.5401 126.77 78.6621 131.916 72.3903 132.195ZM132.46 120.511C132.46 113.973 137.756 108.826 144.167 108.826C150.578 108.826 155.875 114.112 155.875 120.511C155.875 123.71 154.62 126.631 152.53 128.717L144.585 132.195C144.446 132.195 144.307 132.195 144.167 132.195C137.617 132.195 132.46 127.048 132.46 120.511ZM162.843 89.0746C162.843 96.725 156.571 102.984 148.906 102.984H68.0697C60.4042 102.984 54.1325 96.725 54.1325 89.0746V50.1275C54.1325 42.4772 60.4042 36.2178 68.0697 36.2178H148.767C156.432 36.2178 162.704 42.4772 162.704 50.1275V89.0746H162.843Z" fill="#5B81E2"/>
<path d="M30.1604 48.3193C27.0942 48.3193 24.5854 50.823 24.5854 53.8831V74.3304C24.5854 77.3905 27.0942 79.8943 30.1604 79.8943C33.2266 79.8943 35.7353 77.3905 35.7353 74.3304V53.8831C35.7353 50.823 33.2266 48.3193 30.1604 48.3193Z" fill="#5B81E2"/>
<path d="M186.815 48.3193C183.749 48.3193 181.24 50.823 181.24 53.8831V74.3304C181.24 77.3905 183.749 79.8943 186.815 79.8943C189.882 79.8943 192.39 77.3905 192.39 74.3304V53.8831C192.39 50.823 189.882 48.3193 186.815 48.3193Z" fill="#5B81E2"/>
<path d="M46.9095 181.202C47.8851 181.202 48.3032 181.897 48.3032 182.871C48.3032 183.845 47.8851 184.54 46.9095 184.54H43.4251V192.469C44.4007 191.912 45.3764 191.356 46.2126 190.8C46.352 190.66 46.6307 190.661 46.9095 190.661C47.3276 190.661 47.7457 190.939 48.0244 191.634C48.1638 191.912 48.1638 192.191 48.1638 192.469C48.1638 193.025 47.8851 193.442 47.467 193.721C46.2126 194.555 44.8189 195.39 43.4251 196.224V211.247C43.4251 214.168 41.7527 215.281 39.1046 215.281C37.8502 215.281 36.5959 215.142 35.7596 215.002C35.0628 214.863 34.6446 214.307 34.6446 213.472C34.6446 213.333 34.6446 213.055 34.6446 212.916C34.784 212.081 35.3415 211.664 35.899 211.664C36.0384 211.664 36.0384 211.664 36.1778 211.664C36.8746 211.803 37.8502 211.942 38.4077 211.942C39.6621 211.942 39.9408 211.664 39.9408 210.551V198.033C38.6865 198.589 37.4321 199.285 36.1778 199.702C36.0384 199.841 35.7596 199.841 35.6203 199.841C35.0628 199.841 34.5053 199.424 34.2265 198.728C34.0872 198.45 34.0872 198.172 34.0872 198.033C34.0872 197.337 34.3659 196.92 34.9234 196.642C36.5959 195.946 38.2683 195.251 39.9408 194.416V184.679H35.6203C34.784 184.679 34.3659 183.984 34.3659 183.01C34.3659 182.036 34.784 181.341 35.6203 181.341H39.9408V173.412C39.9408 172.439 40.4983 172.022 41.6133 172.022C42.7283 172.022 43.4251 172.439 43.4251 173.412V181.341H46.9095V181.202ZM77.5715 193.999C78.129 194.277 78.5471 194.833 78.5471 195.529C78.5471 195.807 78.4077 196.224 78.2683 196.503C77.8502 197.198 77.4321 197.476 76.7352 197.476C76.4565 197.476 76.0384 197.337 75.7596 197.198C71.7178 195.251 65.8642 190.8 62.6586 186.905C62.3798 186.488 62.1011 186.348 61.9617 186.348C61.8223 186.348 61.5436 186.488 61.2649 186.905C58.0593 191.078 53.5994 194.694 49.2788 197.198C49 197.337 48.5819 197.476 48.3032 197.476C47.7457 197.476 47.1882 197.198 46.9095 196.642C46.7701 196.363 46.6307 195.946 46.6307 195.668C46.6307 195.112 46.9095 194.555 47.467 194.277C51.6481 192.051 56.1081 188.713 59.1743 184.54C59.8711 183.567 60.9861 183.149 61.9617 183.149C62.9373 183.149 64.0523 183.567 64.8885 184.54C68.3729 188.713 73.2509 192.051 77.5715 193.999ZM48.8607 179.95C48.0244 179.95 47.6063 179.394 47.6063 178.42C47.6063 177.446 48.0244 176.89 48.8607 176.89H54.2962V173.412C54.2962 172.578 54.9931 172.022 55.9687 172.022C56.9443 172.022 57.6412 172.578 57.6412 173.412V176.89H66.1429V173.412C66.1429 172.578 66.8398 172.022 67.8154 172.022C68.791 172.022 69.4879 172.578 69.4879 173.412V176.89H76.3171C77.1534 176.89 77.5715 177.446 77.5715 178.42C77.5715 179.394 77.1534 179.95 76.3171 179.95H69.4879V183.706C69.4879 184.54 68.791 184.958 67.8154 184.958C66.8398 184.958 66.1429 184.401 66.1429 183.706V179.95H57.7805V183.706C57.7805 184.54 57.0837 185.097 56.1081 185.097C55.1325 185.097 54.4356 184.54 54.4356 183.706V179.95H48.8607ZM69.906 199.98C72.5541 199.98 73.8084 200.954 73.8084 203.457V210.969C73.8084 213.611 72.4147 214.446 69.906 214.446H54.575C51.9269 214.446 50.6725 213.472 50.6725 210.969V203.457C50.6725 200.815 52.0663 199.98 54.575 199.98H69.906ZM68.9304 211.386C69.906 211.386 70.3241 211.108 70.3241 210.273V204.292C70.3241 203.318 69.906 203.179 68.9304 203.179H55.4112C54.4356 203.179 54.0175 203.457 54.0175 204.292V210.273C54.0175 211.247 54.4356 211.386 55.4112 211.386H68.9304ZM67.676 193.303C68.6516 193.303 69.2091 193.86 69.2091 194.972C69.2091 195.807 68.6516 196.503 67.8154 196.503H56.9443C56.1081 196.503 55.5506 195.807 55.5506 194.972C55.5506 193.999 56.1081 193.303 57.0837 193.303H67.676Z" fill="#5B81E2"/>
<path d="M45.5158 179.811C46.4914 179.811 46.9095 180.506 46.9095 181.48C46.9095 182.454 46.4914 183.149 45.5158 183.149H42.0315V191.078C43.0071 190.521 43.9827 189.965 44.8189 189.409C44.9583 189.27 45.237 189.27 45.5158 189.27C45.9339 189.27 46.352 189.548 46.6308 190.243C46.7701 190.521 46.7701 190.8 46.7701 191.078C46.7701 191.634 46.4914 192.051 46.0733 192.33C44.8189 193.164 43.4252 193.999 42.0315 194.833V209.856C42.0315 212.777 40.359 213.89 37.7109 213.89C36.4565 213.89 35.2022 213.751 34.366 213.611C33.6691 213.472 33.251 212.916 33.251 212.081C33.251 211.942 33.251 211.664 33.251 211.525C33.3903 210.69 33.9478 210.273 34.5053 210.273C34.6447 210.273 34.6447 210.273 34.7841 210.273C35.4809 210.412 36.4565 210.551 37.014 210.551C38.2684 210.551 38.5471 210.273 38.5471 209.16V196.642C37.2928 197.198 36.0384 197.894 34.7841 198.311C34.6447 198.45 34.366 198.45 34.2266 198.45C33.6691 198.45 33.1116 198.033 32.8329 197.337C32.6935 197.059 32.6935 196.781 32.6935 196.642C32.6935 195.946 32.9722 195.529 33.5297 195.251C35.2022 194.555 36.8747 193.86 38.5471 193.025V183.288H34.2266C33.3903 183.288 32.9722 182.593 32.9722 181.619C32.9722 180.646 33.3903 179.95 34.2266 179.95H38.5471V172.021C38.5471 171.048 39.1046 170.631 40.2196 170.631C41.3346 170.631 42.0315 171.048 42.0315 172.021V179.95H45.5158V179.811ZM76.1778 192.608C76.7353 192.886 77.1534 193.442 77.1534 194.138C77.1534 194.416 77.014 194.833 76.8747 195.112C76.4565 195.807 76.0384 196.085 75.3416 196.085C75.0628 196.085 74.6447 195.946 74.366 195.807C70.3241 193.86 64.4705 189.409 61.2649 185.514C60.9862 185.097 60.7074 184.958 60.568 184.958C60.4287 184.958 60.1499 185.097 59.8712 185.514C56.6656 189.687 52.2057 193.303 47.8851 195.807C47.6064 195.946 47.1883 196.085 46.9095 196.085C46.352 196.085 45.7945 195.807 45.5158 195.251C45.3764 194.972 45.237 194.555 45.237 194.277C45.237 193.721 45.5158 193.164 46.0733 192.886C50.2545 190.66 54.7144 187.322 57.7806 183.149C58.4775 182.176 59.5924 181.758 60.568 181.758C61.5437 181.758 62.6586 182.176 63.4949 183.149C66.9792 187.322 71.8572 190.66 76.1778 192.608ZM47.467 178.559C46.6308 178.559 46.2126 178.003 46.2126 177.029C46.2126 176.055 46.6308 175.499 47.467 175.499H52.9025V172.021C52.9025 171.187 53.5994 170.631 54.575 170.631C55.5506 170.631 56.2475 171.187 56.2475 172.021V175.499H64.7492V172.021C64.7492 171.187 65.4461 170.631 66.4217 170.631C67.3973 170.631 68.0942 171.187 68.0942 172.021V175.499H74.9234C75.7597 175.499 76.1778 176.055 76.1778 177.029C76.1778 178.003 75.7597 178.559 74.9234 178.559H68.0942V182.315C68.0942 183.149 67.3973 183.567 66.4217 183.567C65.4461 183.567 64.7492 183.01 64.7492 182.315V178.559H56.3869V182.315C56.3869 183.149 55.69 183.706 54.7144 183.706C53.7388 183.706 53.0419 183.149 53.0419 182.315V178.559H47.467ZM68.5123 198.589C71.1604 198.589 72.4147 199.563 72.4147 202.066V209.578C72.4147 212.22 71.021 213.055 68.5123 213.055H53.1813C50.5332 213.055 49.2788 212.081 49.2788 209.578V202.066C49.2788 199.424 50.6726 198.589 53.1813 198.589H68.5123ZM67.5367 209.995C68.5123 209.995 68.9304 209.717 68.9304 208.882V202.901C68.9304 201.927 68.5123 201.788 67.5367 201.788H54.0175C53.0419 201.788 52.6238 202.066 52.6238 202.901V208.882C52.6238 209.856 53.0419 209.995 54.0175 209.995H67.5367ZM66.2823 191.912C67.2579 191.912 67.8154 192.469 67.8154 193.582C67.8154 194.416 67.2579 195.112 66.4217 195.112H55.5506C54.7144 195.112 54.1569 194.416 54.1569 193.582C54.1569 192.608 54.7144 191.912 55.69 191.912H66.2823Z" fill="#F6BF5B"/>
<path d="M111.718 196.085C110.603 194.972 109.209 194.833 108.233 195.529C107.537 196.085 106.979 196.781 106.979 197.615C106.979 198.172 107.118 198.589 107.537 199.145C109.348 201.371 111.16 203.875 112.833 206.378C109.488 206.796 106.7 207.213 104.052 207.352C102.101 207.63 100.01 207.63 98.0593 207.769L94.9931 207.909C98.4774 201.788 101.683 194.833 104.192 188.296C104.331 188.018 104.331 187.6 104.331 187.322C104.331 186.07 103.495 185.236 102.101 184.958C101.822 184.958 101.544 184.818 101.265 184.818C100.15 184.818 99.1742 185.514 98.8955 186.627C96.5262 193.582 92.9025 201.649 89.1394 208.048C87.7457 208.048 86.3519 208.187 84.9582 208.187C83.5645 208.187 82.5889 209.16 82.5889 210.69V210.969C82.5889 212.638 83.5645 213.611 85.0976 213.611C96.108 213.194 106.004 212.36 115.62 210.83C116.178 211.803 116.735 212.777 117.153 213.89C117.711 214.863 118.547 215.42 119.523 215.42C119.941 215.42 120.359 215.281 120.777 215.002C122.031 214.307 122.31 213.333 122.31 212.777C122.31 212.36 122.171 211.942 121.892 211.525C119.383 206.518 116.038 201.51 111.718 196.085Z" fill="#5B81E2"/>
<path d="M84.9582 194.972C91.0906 190.382 96.6655 183.427 99.7317 176.473C99.8711 176.055 100.01 175.777 100.01 175.36C100.01 174.386 99.453 173.691 98.4774 173.273C98.0593 173.134 97.6411 172.995 97.223 172.995C96.108 172.995 95.2718 173.552 94.8537 174.664C92.4843 180.924 87.6063 186.905 81.7526 190.8C80.9164 191.356 80.4983 192.191 80.4983 193.025C80.4983 193.442 80.6377 194.138 81.1952 194.833C81.7526 195.39 82.4495 195.807 83.1464 195.807C83.7039 195.668 84.4007 195.39 84.9582 194.972Z" fill="#5B81E2"/>
<path d="M124.958 190.521C119.105 186.627 114.087 180.785 111.439 174.386C110.882 172.995 109.348 172.439 107.815 173.134C106.84 173.552 106.282 174.247 106.282 175.36C106.282 175.777 106.422 176.194 106.561 176.473C109.767 183.567 115.481 190.521 121.613 194.973C122.171 195.39 122.728 195.529 123.425 195.529C124.261 195.529 124.958 195.112 125.516 194.416C125.934 193.86 126.213 193.164 126.213 192.608C126.073 191.773 125.794 191.078 124.958 190.521Z" fill="#5B81E2"/>
<path d="M170.533 204.709H152.833V202.345H163.983C167.328 202.345 168.861 200.954 168.861 197.754V187.6C168.861 184.54 167.328 183.01 163.983 183.01H152.833V180.785H170.115C171.23 180.785 172.066 179.811 172.066 178.42C172.066 177.029 171.23 176.055 170.115 176.055H152.833V173.134C152.833 172.161 152.136 171.187 150.324 171.187C148.791 171.187 147.815 172.022 147.815 173.134V176.055H130.951C129.697 176.055 129 176.89 129 178.42C129 179.811 129.836 180.785 130.951 180.785H147.815V183.01H137.223C133.878 183.01 132.345 184.401 132.345 187.6V197.754C132.345 200.815 133.878 202.345 137.223 202.345H147.815V204.709H130.394C129.279 204.709 128.443 205.683 128.443 207.074C128.443 208.465 129.279 209.439 130.394 209.439H147.815V214.863C147.815 216.115 148.791 216.811 150.324 216.811C152.136 216.811 152.833 215.837 152.833 214.863V209.299H170.533C171.648 209.299 172.484 208.326 172.484 206.935C172.484 205.544 171.648 204.709 170.533 204.709ZM163.843 190.382H152.693V187.322H163.007C163.843 187.322 163.843 187.6 163.843 188.018V190.382ZM163.843 194.694V197.198C163.843 197.754 163.704 197.894 163.007 197.894H152.693V194.555H163.843V194.694ZM137.223 194.694H147.815V198.033H138.059C137.223 198.033 137.223 197.754 137.223 197.337V194.694ZM137.223 190.382V188.018C137.223 187.461 137.362 187.322 138.059 187.322H147.815V190.382H137.223Z" fill="#5B81E2"/>
</g>
<defs>
<filter id="filter0_d_127_615" x="0" y="0" width="220" height="241.164" filterUnits="userSpaceOnUse" color-interpolation-filters="sRGB">
<feFlood flood-opacity="0" result="BackgroundImageFix"/>
<feColorMatrix in="SourceAlpha" type="matrix" values="0 0 0 0 0 0 0 0 0 0 0 0 0 0 0 0 0 0 127 0" result="hardAlpha"/>
<feOffset dx="1" dy="1"/>
<feGaussianBlur stdDeviation="5"/>
<feColorMatrix type="matrix" values="0 0 0 0 0 0 0 0 0 0 0 0 0 0 0 0 0 0 0.2 0"/>
<feBlend mode="normal" in2="BackgroundImageFix" result="effect1_dropShadow_127_615"/>
<feBlend mode="normal" in="SourceGraphic" in2="effect1_dropShadow_127_615" result="shape"/>
</filter>
<clipPath id="clip0_127_615">
<rect width="200" height="221.164" fill="white" transform="translate(9 9)"/>
</clipPath>
</defs>
</svg>
