<svg width="52" height="65" viewBox="0 0 52 65" fill="none" xmlns="http://www.w3.org/2000/svg">
<g clip-path="url(#clip0_175_701)">
<path d="M51.0902 29.2661V59.784C51.0902 60.5925 50.7534 61.3335 50.0123 61.8051C49.2713 62.344 48.3955 62.4114 47.5871 62.2093L35.3934 58.7061L21.5829 62.7482C21.4481 62.7482 21.3134 62.8156 21.1787 62.8156C20.9766 62.8156 20.9092 62.8156 20.7745 62.7482L7.50288 58.8409C6.89656 58.6388 6.49235 58.3693 6.08814 57.9651C5.7513 57.5609 5.54919 57.0219 5.54919 56.483V25.9651C5.54919 25.1567 5.95341 24.4156 6.62709 23.944C7.36814 23.4051 8.17656 23.3377 9.05235 23.5398L21.246 27.1103L35.1913 22.2598L49.2039 26.9082C50.2818 27.2451 51.0229 28.1882 51.0902 29.2661Z" fill="#FBDFB1"/>
<path d="M49.6081 21.721L43.6797 19.902L41.8607 22.6642L48.5302 24.7526V60.7273L35.8649 56.7526V31.1526C35.326 31.422 34.7197 31.6241 34.046 31.6241C33.5744 31.6241 33.1028 31.5568 32.6313 31.3547V56.7526L19.966 60.7273V24.7526L26.2986 22.7989L24.4797 20.0368L18.3492 21.9231L4.74074 17.6789C3.79758 17.4094 2.85443 17.5442 2.04601 18.1505C1.30495 18.6894 0.833374 19.6326 0.833374 20.5757V56.9547C0.833374 57.6284 1.03548 58.2347 1.43969 58.7063C1.8439 59.2452 2.31548 59.582 2.98916 59.7841L17.8776 64.4326C18.0123 64.4999 18.1471 64.4999 18.3492 64.4999C18.5513 64.4999 18.686 64.4326 18.8207 64.4326L34.2481 59.6494L47.8565 63.8263C48.7323 64.0957 49.7428 63.961 50.5513 63.3547C51.3597 62.8157 51.7639 61.8726 51.7639 60.9294V24.5505C51.6965 23.2705 50.8881 22.1252 49.6081 21.721ZM16.7323 60.7273L4.06706 56.7526V20.7778L16.7323 24.7526V60.7273Z" fill="#F6BF5B"/>
<path d="M32.7661 28.6599C33.3724 29.6031 34.7198 29.6031 35.2587 28.6599L43.2082 16.3315C44.1513 14.7147 44.6903 12.8284 44.6229 10.8073C44.4882 5.35048 40.1092 0.836791 34.6524 0.499949C28.5219 0.163107 23.4692 5.01363 23.4692 11.0768C23.4692 13.0305 24.0082 14.7821 24.884 16.3315L32.7661 28.6599ZM34.0461 5.88942C36.8756 5.88942 39.2334 8.17995 39.2334 11.0768C39.2334 13.9063 36.9429 16.2642 34.0461 16.2642C31.2166 16.2642 28.8587 13.9736 28.8587 11.0768C28.8587 8.17995 31.1492 5.88942 34.0461 5.88942Z" fill="#F6BF5B"/>
</g>
<defs>
<clipPath id="clip0_175_701">
<rect width="50.9305" height="64" fill="white" transform="translate(0.833374 0.5)"/>
</clipPath>
</defs>
</svg>
