<svg width="47" height="47" viewBox="0 0 47 47" fill="none" xmlns="http://www.w3.org/2000/svg">
<g filter="url(#filter0_d_175_378)">
<path d="M35 26.5L29.8057 21.2964L35 26.5ZM32.6842 14.3421C32.6842 16.9524 31.6473 19.4558 29.8015 21.3015C27.9558 23.1473 25.4524 24.1842 22.8421 24.1842C20.2318 24.1842 17.7284 23.1473 15.8827 21.3015C14.0369 19.4558 13 16.9524 13 14.3421C13 11.7318 14.0369 9.22844 15.8827 7.38269C17.7284 5.53693 20.2318 4.5 22.8421 4.5C25.4524 4.5 27.9558 5.53693 29.8015 7.38269C31.6473 9.22844 32.6842 11.7318 32.6842 14.3421Z" fill="white"/>
<path d="M35 26.5L29.8057 21.2964L35 26.5ZM32.6842 14.3421C32.6842 16.9524 31.6473 19.4558 29.8015 21.3015C27.9558 23.1473 25.4524 24.1842 22.8421 24.1842C20.2318 24.1842 17.7284 23.1473 15.8827 21.3015C14.0369 19.4558 13 16.9524 13 14.3421C13 11.7318 14.0369 9.22844 15.8827 7.38269C17.7284 5.53693 20.2318 4.5 22.8421 4.5C25.4524 4.5 27.9558 5.53693 29.8015 7.38269C31.6473 9.22844 32.6842 11.7318 32.6842 14.3421Z" stroke="#E25B6C" stroke-width="5" stroke-linecap="round"/>
</g>
<defs>
<filter id="filter0_d_175_378" x="0.5" y="0" width="46.2693" height="46.2662" filterUnits="userSpaceOnUse" color-interpolation-filters="sRGB">
<feFlood flood-opacity="0" result="BackgroundImageFix"/>
<feColorMatrix in="SourceAlpha" type="matrix" values="0 0 0 0 0 0 0 0 0 0 0 0 0 0 0 0 0 0 127 0" result="hardAlpha"/>
<feOffset dy="8"/>
<feGaussianBlur stdDeviation="5"/>
<feComposite in2="hardAlpha" operator="out"/>
<feColorMatrix type="matrix" values="0 0 0 0 0.886275 0 0 0 0 0.356863 0 0 0 0 0.423529 0 0 0 0.25 0"/>
<feBlend mode="normal" in2="BackgroundImageFix" result="effect1_dropShadow_175_378"/>
<feBlend mode="normal" in="SourceGraphic" in2="effect1_dropShadow_175_378" result="shape"/>
</filter>
</defs>
</svg>
