<svg width="109" height="195" viewBox="0 0 109 195" fill="none" xmlns="http://www.w3.org/2000/svg">
<path d="M49.5133 189.41H59.4681L59.4681 101.858H49.5133L49.5133 189.41Z" fill="#CBCBCB"/>
<path d="M81.1932 202.396C81.1932 189.889 70.9173 179.707 58.4738 179.707H50.5261C38.0023 179.707 27.8066 189.969 27.8066 202.396H81.1932Z" fill="#25396A"/>
<path d="M54.5 109C84.5995 109 109 84.5995 109 54.5C109 24.4005 84.5995 0 54.5 0C24.4005 0 0 24.4005 0 54.5C0 84.5995 24.4005 109 54.5 109Z" fill="#FFC55A"/>
<path d="M54.5 102C80.7335 102 102 80.7335 102 54.5C102 28.2665 80.7335 7 54.5 7C28.2665 7 7 28.2665 7 54.5C7 80.7335 28.2665 102 54.5 102Z" fill="white"/>
<path d="M54.5401 96.1639C53.1753 96.1639 51.8106 96.0838 50.4458 96.0036C35.0319 94.5604 21.7856 84.6988 15.9251 70.3474C13.8378 65.2964 12.7942 60.0048 12.7942 54.4727C12.7942 31.4623 31.4996 12.7814 54.5401 12.7814C59.9992 12.7814 65.378 13.8237 70.4357 15.9082C84.8059 21.7611 94.6001 34.99 96.1254 50.3837C96.286 51.7467 96.286 53.1097 96.286 54.4727C96.286 77.4029 77.5003 96.1639 54.5401 96.1639Z" fill="#FFC55A"/>
<g filter="url(#filter0_d_118_489)">
<path d="M74.6905 44.13C74.6102 44.13 74.53 44.13 74.53 44.13V38.7583C74.53 38.5178 74.53 38.2772 74.4497 38.0367C74.4497 37.9565 74.4497 37.9565 74.4497 37.8764C74.4497 34.99 65.5385 32.6649 54.5401 32.6649C43.5416 32.6649 34.5502 35.0702 34.5502 37.9565C34.5502 38.0367 34.5502 38.0367 34.5502 38.1169C34.4699 38.3574 34.4699 38.5979 34.4699 38.8385V44.2102C34.3897 44.2102 34.3094 44.2102 34.3094 44.2102C33.1855 44.2102 32.3024 46.9362 32.3024 50.3036C32.3024 53.6709 33.1855 56.3969 34.3094 56.3969C34.3897 56.3969 34.3897 56.3969 34.4699 56.3969V68.5034C34.4699 70.4276 35.9953 71.9509 37.922 71.9509H38.484V72.0311V74.0355C38.484 75.2381 39.5276 76.2804 40.7318 76.2804H42.8994C44.1036 76.2804 45.1473 75.2381 45.1473 74.0355V72.0311V71.9509H63.8526V72.0311V74.0355C63.8526 75.2381 64.816 76.2804 66.1005 76.2804H68.2681C69.4723 76.2804 70.5159 75.2381 70.5159 74.0355V72.0311V71.9509H71.0779C73.0046 71.9509 74.53 70.4276 74.53 68.5034V56.2365C74.6102 56.2365 74.6905 56.2365 74.6905 56.2365C75.8145 56.2365 76.6975 53.5106 76.6975 50.1432C76.6975 46.7758 75.8145 44.13 74.6905 44.13ZM41.8558 68.343C40.491 68.343 39.4473 67.2206 39.4473 65.9378C39.4473 64.5748 40.5713 63.5325 41.8558 63.5325C43.2205 63.5325 44.2642 64.655 44.2642 65.9378C44.2642 67.2206 43.2205 68.343 41.8558 68.343ZM67.1441 68.343C65.7794 68.343 64.7357 67.2206 64.7357 65.9378C64.7357 64.5748 65.8597 63.5325 67.1441 63.5325C68.5089 63.5325 69.5526 64.655 69.5526 65.9378C69.6328 67.2206 68.5089 68.343 67.1441 68.343ZM70.8371 57.8401C70.8371 59.2832 69.7131 60.4057 68.2681 60.4057H40.7318C39.2868 60.4057 38.1629 59.2832 38.1629 57.8401V42.6067C38.1629 41.1636 39.2868 40.0411 40.7318 40.0411H68.2681C69.7131 40.0411 70.8371 41.1636 70.8371 42.6067V57.8401Z" fill="white"/>
</g>
<defs>
<filter id="filter0_d_118_489" x="12.3024" y="20.6649" width="84.3951" height="83.6155" filterUnits="userSpaceOnUse" color-interpolation-filters="sRGB">
<feFlood flood-opacity="0" result="BackgroundImageFix"/>
<feColorMatrix in="SourceAlpha" type="matrix" values="0 0 0 0 0 0 0 0 0 0 0 0 0 0 0 0 0 0 127 0" result="hardAlpha"/>
<feOffset dy="8"/>
<feGaussianBlur stdDeviation="10"/>
<feColorMatrix type="matrix" values="0 0 0 0 0 0 0 0 0 0 0 0 0 0 0 0 0 0 0.1 0"/>
<feBlend mode="normal" in2="BackgroundImageFix" result="effect1_dropShadow_118_489"/>
<feBlend mode="normal" in="SourceGraphic" in2="effect1_dropShadow_118_489" result="shape"/>
</filter>
</defs>
</svg>
