<svg width="126" height="126" viewBox="0 0 126 126" fill="none" xmlns="http://www.w3.org/2000/svg">
<path d="M61.7536 84.2155H64.9545V56.613H61.7536V84.2155Z" fill="#CBCBCB"/>
<path d="M71.9402 88.3097C71.9402 84.3665 68.6361 81.1563 64.6351 81.1563H62.0796C58.0527 81.1563 54.7744 84.3918 54.7744 88.3097H71.9402Z" fill="#FFC55A"/>
<path d="M63.1666 61.8333C74.2123 61.8333 83.1666 52.879 83.1666 41.8333C83.1666 30.7876 74.2123 21.8333 63.1666 21.8333C52.1209 21.8333 43.1666 30.7876 43.1666 41.8333C43.1666 52.879 52.1209 61.8333 63.1666 61.8333Z" fill="#FFC55A"/>
<path d="M63.357 56.6577C71.7921 56.6577 78.6301 49.953 78.6301 41.6824C78.6301 33.4117 71.7921 26.707 63.357 26.707C54.922 26.707 48.084 33.4117 48.084 41.6824C48.084 49.953 54.922 56.6577 63.357 56.6577Z" fill="white"/>
<path d="M63.37 54.8177C62.9312 54.8177 62.4924 54.7924 62.0536 54.7671C57.0974 54.3122 52.8382 51.2031 50.9539 46.6785C50.2827 45.086 49.9471 43.4178 49.9471 41.6736C49.9471 34.4191 55.9616 28.5296 63.37 28.5296C65.1253 28.5296 66.8548 28.8582 68.4811 29.5154C73.1016 31.3606 76.2508 35.5313 76.7413 40.3845C76.7929 40.8142 76.7929 41.2439 76.7929 41.6736C76.7929 48.9029 70.7526 54.8177 63.37 54.8177Z" fill="#FFC55A"/>
<mask id="mask0_175_677" style="mask-type:alpha" maskUnits="userSpaceOnUse" x="49" y="28" width="28" height="27">
<path d="M63.37 54.8177C62.9312 54.8177 62.4924 54.7924 62.0536 54.7672C57.0974 54.3122 52.8382 51.2031 50.9539 46.6785C50.2827 45.0861 49.9471 43.4178 49.9471 41.6737C49.9471 34.4192 55.9616 28.5296 63.37 28.5296C65.1253 28.5296 66.8548 28.8582 68.4811 29.5154C73.1016 31.3606 76.2508 35.5313 76.7413 40.3845C76.7929 40.8142 76.7929 41.244 76.7929 41.6737C76.7929 48.9029 70.7526 54.8177 63.37 54.8177Z" fill="#FFC55A"/>
</mask>
<g mask="url(#mask0_175_677)">
<rect x="32.4999" y="47.1667" width="56" height="21.3333" transform="rotate(-30 32.4999 47.1667)" fill="#FBDFB1"/>
</g>
<g filter="url(#filter0_d_175_677)">
<path d="M69.8491 38.4128C69.8233 38.4128 69.7975 38.4128 69.7975 38.4128V36.7193C69.7975 36.6435 69.7975 36.5676 69.7717 36.4918C69.7717 36.4665 69.7717 36.4665 69.7717 36.4412C69.7717 35.5313 66.9064 34.7982 63.37 34.7982C59.8336 34.7982 56.9425 35.5565 56.9425 36.4665C56.9425 36.4918 56.9425 36.4918 56.9425 36.5171C56.9167 36.5929 56.9167 36.6687 56.9167 36.7446V38.4381C56.8909 38.4381 56.8651 38.4381 56.8651 38.4381C56.5037 38.4381 56.2197 39.2975 56.2197 40.3592C56.2197 41.4208 56.5037 42.2802 56.8651 42.2802C56.8909 42.2802 56.8909 42.2802 56.9167 42.2802V46.0971C56.9167 46.7037 57.4071 47.184 58.0267 47.184H58.2073V47.2092V47.8412C58.2073 48.2203 58.5429 48.5489 58.9301 48.5489H59.6271C60.0143 48.5489 60.3498 48.2203 60.3498 47.8412V47.2092V47.184H66.3643V47.2092V47.8412C66.3643 48.2203 66.6741 48.5489 67.0871 48.5489H67.7841C68.1713 48.5489 68.5068 48.2203 68.5068 47.8412V47.2092V47.184H68.6875C69.307 47.184 69.7975 46.7037 69.7975 46.0971V42.2297C69.8233 42.2297 69.8491 42.2297 69.8491 42.2297C70.2105 42.2297 70.4944 41.3703 70.4944 40.3086C70.4944 39.247 70.2105 38.4128 69.8491 38.4128ZM59.2915 46.0465C58.8527 46.0465 58.5171 45.6926 58.5171 45.2882C58.5171 44.8585 58.8785 44.5299 59.2915 44.5299C59.7303 44.5299 60.0659 44.8838 60.0659 45.2882C60.0659 45.6926 59.7303 46.0465 59.2915 46.0465ZM67.4227 46.0465C66.9838 46.0465 66.6483 45.6926 66.6483 45.2882C66.6483 44.8585 67.0097 44.5299 67.4227 44.5299C67.8615 44.5299 68.1971 44.8838 68.1971 45.2882C68.2229 45.6926 67.8615 46.0465 67.4227 46.0465ZM68.6101 42.7352C68.6101 43.1902 68.2487 43.5441 67.7841 43.5441H58.9301C58.4655 43.5441 58.1041 43.1902 58.1041 42.7352V37.9326C58.1041 37.4776 58.4655 37.1237 58.9301 37.1237H67.7841C68.2487 37.1237 68.6101 37.4776 68.6101 37.9326V42.7352Z" fill="white"/>
</g>
<defs>
<filter id="filter0_d_175_677" x="36.2197" y="22.7982" width="54.2747" height="53.7507" filterUnits="userSpaceOnUse" color-interpolation-filters="sRGB">
<feFlood flood-opacity="0" result="BackgroundImageFix"/>
<feColorMatrix in="SourceAlpha" type="matrix" values="0 0 0 0 0 0 0 0 0 0 0 0 0 0 0 0 0 0 127 0" result="hardAlpha"/>
<feOffset dy="8"/>
<feGaussianBlur stdDeviation="10"/>
<feColorMatrix type="matrix" values="0 0 0 0 0 0 0 0 0 0 0 0 0 0 0 0 0 0 0.1 0"/>
<feBlend mode="normal" in2="BackgroundImageFix" result="effect1_dropShadow_175_677"/>
<feBlend mode="normal" in="SourceGraphic" in2="effect1_dropShadow_175_677" result="shape"/>
</filter>
</defs>
</svg>
